<svg width="128" height="128" viewBox="0 0 128 128" fill="none" xmlns="http://www.w3.org/2000/svg">
<g id="graduated 1" clip-path="url(#clip0_2005_10196)">
<path id="Vector" d="M95.0248 40.5314C94.5697 40.5314 94.1638 40.2447 94.0111 39.8151C93.8593 39.3866 93.9933 38.9078 94.347 38.6201L104.862 30.062L90.7531 38.2074C90.2586 38.4901 89.63 38.3394 89.3177 37.8635C89.0054 37.3867 89.1187 36.7503 89.5758 36.4104L96.2769 31.4609L86.9819 36.8261C86.4844 37.1079 85.8519 36.9513 85.5436 36.4685C85.2362 35.9858 85.3603 35.3464 85.8263 35.0134L88.7059 32.9929L83.8116 35.8164C83.3141 36.103 82.6787 35.9484 82.3684 35.4646C82.058 34.9809 82.1832 34.3386 82.6521 34.0066L86.6115 31.2087L80.267 34.8676C79.7744 35.1514 79.1449 35.0036 78.8316 34.5278C78.5183 34.0529 78.6287 33.4165 79.0838 33.0746L86.9691 27.1666L75.3648 33.8647C74.8772 34.1445 74.2555 34.0007 73.9393 33.5347C73.624 33.0697 73.7196 32.4392 74.16 32.0885L84.7594 23.7087L68.7445 32.9623C68.245 33.2539 67.6047 33.0973 67.2953 32.6086C66.985 32.12 67.117 31.4737 67.5938 31.1467L71.7818 28.2306L64.1162 32.655C63.6187 32.9239 62.998 32.7633 62.6946 32.2855C62.3912 31.8087 62.5094 31.1782 62.9645 30.8432L68.9169 26.6996L58.7569 32.5643C58.2603 32.8451 57.6318 32.6894 57.3235 32.2106C57.0141 31.7319 57.1323 31.0954 57.5924 30.7585L67.7741 23.4801L51.2893 32.9968C50.7928 33.2855 50.1573 33.1328 49.8451 32.65C49.5337 32.1673 49.6559 31.526 50.1229 31.191L63.6423 21.4704L40.4741 34.8371C39.9776 35.1169 39.3481 34.9593 39.0407 34.4785C38.7334 33.9987 38.8545 33.3613 39.3166 33.0273L56.9107 20.6162L22.7451 40.3363C22.2367 40.6476 21.5727 40.489 21.2604 39.9807C20.9481 39.4723 21.1077 38.8073 21.6151 38.496L39.3038 26.9479L19.9709 38.1147C19.4664 38.3886 18.8359 38.2172 18.5384 37.7266C18.2409 37.236 18.3808 36.5986 18.8566 36.2774L28.1576 30.3388L17.7572 36.3434C17.2567 36.6173 16.6302 36.4547 16.3277 35.971C16.0253 35.4883 16.1514 34.8529 16.6164 34.5228L38.6821 19.6173L14.382 33.645C13.8796 33.915 13.254 33.7455 12.9565 33.2598C12.658 32.7732 12.791 32.1387 13.2589 31.8136L26.7803 23.0003L11.8531 31.6215C11.3585 31.9082 10.727 31.7565 10.4138 31.2787C10.1015 30.7999 10.2177 30.1605 10.6788 29.8226L25.8641 18.6813L8.3321 28.8108C7.86808 29.0758 7.27994 28.9596 6.95089 28.5389C6.62185 28.1173 6.65239 27.5183 7.02182 27.1321L12.4018 21.558L4.77466 25.9578C4.41507 26.1666 3.96682 26.1479 3.62398 25.9115C3.28115 25.675 3.10579 25.2623 3.17376 24.8514L3.32055 23.9668L2.7196 24.3135C2.38661 24.5254 1.96299 24.5372 1.61818 24.3451C1.27338 24.152 1.06156 23.7855 1.06649 23.3904C1.07142 22.9954 1.29308 22.6348 1.6438 22.4516L4.21311 20.9669C4.5727 20.7551 5.02095 20.7729 5.3628 21.0123C5.70466 21.2487 5.88002 21.6605 5.81204 22.0703L5.6682 22.957L17.9759 15.8549C18.4409 15.5869 19.032 15.7022 19.362 16.1248C19.6921 16.5465 19.6615 17.1484 19.2891 17.5336L13.9091 23.1107L41.8179 6.9884C42.3115 6.7096 42.938 6.8623 43.2474 7.33814C43.5577 7.81397 43.4454 8.44842 42.9903 8.78732L27.8088 19.9246L60.3735 1.1237C60.8769 0.841947 61.5144 1.00844 61.8158 1.50102C62.1173 1.99361 61.9764 2.63692 61.4966 2.95808L47.9614 11.7812L64.0551 2.48422C64.5556 2.21034 65.1821 2.37388 65.4846 2.85661C65.787 3.33934 65.6609 3.97478 65.1959 4.30481L43.1242 19.2153L68.9622 4.2989C69.4666 4.02502 70.0971 4.19545 70.3946 4.68607C70.6932 5.17767 70.5533 5.81507 70.0774 6.13623L60.7843 12.0758L72.1906 5.48602C72.696 5.19244 73.3432 5.35598 73.6487 5.85349C73.9541 6.35198 73.8063 7.00219 73.3157 7.3204L55.6339 18.8616L76.2219 6.97756C76.7184 6.69876 77.348 6.8554 77.6553 7.33617C77.9627 7.81693 77.8415 8.45334 77.3795 8.78732L59.7943 21.2073L81.2295 8.82869C81.726 8.54102 82.3615 8.69373 82.6728 9.17547C82.9851 9.6582 82.8629 10.2995 82.396 10.6345L68.8804 20.3551L85.8825 10.5439C86.38 10.2523 87.0193 10.404 87.3316 10.8897C87.6439 11.3744 87.5188 12.0196 87.0469 12.3517L76.8583 19.6301L89.9758 12.0571C90.4743 11.7704 91.1107 11.927 91.4191 12.4127C91.7284 12.8984 91.6004 13.5407 91.1294 13.8708L85.181 18.0095L93.3392 13.2984C93.8396 13.0078 94.48 13.1644 94.7893 13.6531C95.0997 14.1407 94.9677 14.787 94.4908 15.115L90.296 18.0203L96.473 14.454C96.9616 14.1693 97.5872 14.3102 97.9054 14.7781C98.2236 15.2461 98.1251 15.8805 97.6808 16.2303L87.0765 24.6229L101.473 16.314C101.965 16.0293 102.595 16.178 102.908 16.6529C103.221 17.1277 103.111 17.7651 102.656 18.106L94.7746 24.0121L105.521 17.8075C106.018 17.5198 106.654 17.6755 106.964 18.1592C107.274 18.6429 107.149 19.2853 106.68 19.6173L102.719 22.4151L108.693 18.972C109.191 18.6892 109.823 18.8459 110.131 19.3286C110.439 19.8113 110.315 20.4517 109.849 20.7837L106.978 22.7984L111.689 20.0803C112.182 19.7966 112.812 19.9483 113.123 20.4241C113.436 20.8999 113.322 21.5373 112.866 21.8772L106.162 26.8267L115.448 21.4635C115.934 21.1866 116.55 21.3275 116.868 21.7866C117.185 22.2467 117.097 22.8732 116.666 23.2289L103.355 34.0598C103.505 34.1524 103.629 34.2815 103.715 34.4351C104.011 34.9484 103.836 35.6045 103.323 35.9021L95.5627 40.3856C95.3992 40.4811 95.214 40.5314 95.0248 40.5314Z" fill="#4C70F2"/>
<path id="Vector_2" d="M95.6848 66.6886C95.3705 66.6886 95.072 66.5497 94.8671 66.3103C94.6632 66.0709 94.5745 65.7537 94.6238 65.4424L94.807 64.2976L93.3588 65.133C92.9421 65.3724 92.417 65.3074 92.0722 64.9725C91.7274 64.6375 91.6466 64.1144 91.8742 63.6908L93.4751 60.7205L88.9876 63.3144C88.5315 63.5755 87.9532 63.4691 87.6202 63.0622C87.2872 62.6563 87.2961 62.0682 87.6429 61.6721L91.0861 57.7679L84.2076 61.7391C83.7259 62.015 83.1121 61.878 82.7929 61.4229C82.4737 60.9678 82.5535 60.3451 82.9771 59.9846L86.1297 57.3354L80.3192 60.6929C79.8305 60.9638 79.2168 60.817 78.9045 60.354C78.5922 59.891 78.6858 59.2664 79.1202 58.9157L83.4628 55.4981L76.0317 59.8023C75.5362 60.0791 74.9106 59.9245 74.6022 59.4476C74.2939 58.9708 74.4091 58.3364 74.8653 57.9985L78.3094 55.508L71.9925 59.1669C71.499 59.4476 70.8734 59.2969 70.5611 58.8221C70.2498 58.3482 70.3601 57.7137 70.8133 57.3719L80.3172 50.3112L66.0313 58.5561C65.5298 58.8418 64.8924 58.6812 64.586 58.1916C64.2797 57.7029 64.4146 57.0586 64.8905 56.7325L67.7504 54.7957L61.5567 58.3709C61.0601 58.6585 60.4247 58.5058 60.1134 58.0241C59.8021 57.5413 59.9233 56.9 60.3902 56.565L71.1768 48.8177L54.2379 58.5965C53.7433 58.8753 53.1167 58.7226 52.8074 58.2477C52.4971 57.7719 52.6094 57.1374 53.0645 56.7975L67.4598 46.2848L43.8059 59.9225C43.3015 60.2042 42.6651 60.0378 42.3636 59.5452C42.0622 59.0526 42.2031 58.4103 42.6828 58.0891L45.7477 56.102L35.5414 61.9923C35.0389 62.2701 34.4064 62.1027 34.106 61.614C33.8055 61.1244 33.9415 60.485 34.4163 60.1609L43.1587 54.4647L23.7243 65.6837C23.2209 65.9704 22.5805 65.8059 22.2761 65.3123C21.9727 64.8188 22.1145 64.1735 22.5973 63.8523L40.2899 52.2303L23.7184 61.7923C23.2189 62.0603 22.5973 61.8948 22.2968 61.415C21.9973 60.9343 22.1204 60.3038 22.5795 59.9718L39.9559 48.2433L23.7243 57.6172C23.2209 57.9098 22.5766 57.7482 22.2702 57.2527C21.9638 56.7581 22.1066 56.1089 22.5923 55.7877L30.8372 50.3329L23.7243 54.4391C23.2307 54.7257 22.5982 54.578 22.285 54.1002C21.9707 53.6233 22.084 52.984 22.5431 52.6441L36.5876 42.1757L23.7243 49.6029C23.2278 49.8905 22.5923 49.7378 22.281 49.2561C21.9697 48.7734 22.0909 48.132 22.5578 47.7971L26.862 44.7046L23.7223 46.5173C23.281 46.7715 22.7224 46.6819 22.3825 46.3026C22.0426 45.9233 22.016 45.3588 22.3175 44.948L25.274 40.9088L23.7184 41.8063C23.2071 42.0732 22.5766 41.89 22.2879 41.3905C21.9993 40.892 22.1549 40.2536 22.6416 39.9443L28.6294 36.4903C29.0698 36.2371 29.6264 36.3268 29.9653 36.7051C30.3042 37.0834 30.3338 37.6459 30.0343 38.0567L27.0729 42.0939L44.5054 32.0373C45.0019 31.7497 45.6373 31.9024 45.9487 32.3841C46.261 32.8669 46.1388 33.5082 45.6718 33.8432L41.3676 36.9336L51.4351 31.1231C51.9286 30.8354 52.5611 30.9842 52.8754 31.461C53.1896 31.9378 53.0763 32.5772 52.6173 32.9171L38.5658 43.3924L60.3538 30.8128C60.8562 30.5153 61.5054 30.6778 61.8069 31.1783C62.1113 31.6728 61.9694 32.3191 61.4857 32.6403L53.2517 38.0932L65.4973 31.0236C65.9968 30.7556 66.6175 30.9212 66.9179 31.4019C67.2184 31.8817 67.0953 32.5132 66.6362 32.8442L49.2578 44.5736L71.5728 31.6906C72.0763 31.4039 72.7166 31.5684 73.021 32.062C73.3245 32.5555 73.1836 33.2008 72.7009 33.522L54.9974 45.144L76.7332 32.6009C77.2366 32.324 77.869 32.4905 78.1695 32.9802C78.47 33.4698 78.334 34.1092 77.8592 34.4323L69.1218 40.1246L80.5842 33.5092C81.0886 33.2156 81.7358 33.3791 82.0422 33.8767C82.3476 34.3742 82.1998 35.0254 81.7092 35.3426L78.6444 37.3297L83.7692 34.3722C84.2628 34.0934 84.8893 34.2461 85.1997 34.7219C85.509 35.1978 85.3967 35.8322 84.9416 36.1711L70.5335 46.6887L88.8093 36.1435C89.3059 35.8559 89.9413 36.0086 90.2526 36.4903C90.5639 36.973 90.4427 37.6144 89.9758 37.9493L79.198 45.6967L92.7973 37.8498C93.2968 37.576 93.9233 37.7395 94.2268 38.2222C94.5292 38.7059 94.4021 39.3404 93.9381 39.6714L91.0516 41.623L95.3558 39.1355C95.8493 38.8547 96.4759 39.0054 96.7872 39.4793C97.0985 39.9541 96.9882 40.5886 96.535 40.9295L87.0547 47.9655L95.6917 42.9786C96.1872 42.7008 96.8128 42.8564 97.1212 43.3333C97.4295 43.8101 97.3143 44.4445 96.8581 44.7824L93.3933 47.2808L95.6917 45.9548C96.1794 45.6839 96.7941 45.8317 97.1064 46.2947C97.4187 46.7567 97.3241 47.3823 96.8907 47.733L92.5471 51.1289L95.6917 49.3142C96.1744 49.0374 96.7892 49.1753 97.1084 49.6314C97.4276 50.0876 97.3458 50.7122 96.9202 51.0708L93.7657 53.7179L95.6917 52.6096C96.1478 52.3475 96.7261 52.4539 97.0591 52.8608C97.3921 53.2677 97.3832 53.8558 97.0365 54.2519L93.5933 58.1512L95.6848 56.9443C96.1015 56.7059 96.6256 56.7719 96.9695 57.1069C97.3133 57.4409 97.3941 57.963 97.1685 58.3856L95.5666 61.3539L95.6848 61.2869C96.0444 61.0801 96.4907 61.0988 96.8325 61.3333C97.1734 61.5687 97.3497 61.9795 97.2847 62.3884L96.9488 64.4848C97.0286 64.5597 97.0975 64.6464 97.1527 64.7409C97.2965 64.9882 97.3369 65.2818 97.263 65.5576C97.1901 65.8335 97.0108 66.0699 96.7636 66.2128L96.2188 66.529C96.0572 66.6275 95.874 66.6817 95.6848 66.6886Z" fill="#3F5DCA"/>
<path id="Vector_3" d="M113.082 67.0571C112.639 67.058 112.241 66.7881 112.079 66.3773C111.915 65.9665 112.021 65.4975 112.344 65.1951L115.615 62.1243L108.196 66.4049C107.709 66.6787 107.092 66.5339 106.778 66.0699C106.464 65.6069 106.558 64.9803 106.993 64.6296L110.191 62.1066L106.748 64.0976C106.263 64.3784 105.644 64.2405 105.325 63.7794C105.005 63.3193 105.093 62.6908 105.526 62.3351L110.96 57.8654L107.161 60.0584C106.676 60.3353 106.059 60.1944 105.742 59.7353C105.425 59.2752 105.512 58.6487 105.943 58.293L108.048 56.5719L107.8 56.7138C107.375 56.9591 106.837 56.8852 106.493 56.5335C106.149 56.1818 106.088 55.6419 106.343 55.2222L108.496 51.6973H108.478C107.991 51.6973 107.565 51.3702 107.439 50.8993C107.313 50.4294 107.519 49.9329 107.94 49.6895L110.93 47.9675C111.355 47.7222 111.893 47.7951 112.236 48.1458C112.58 48.4975 112.642 49.0384 112.386 49.459L110.38 52.7406L118.594 48.0059C119.079 47.7222 119.702 47.8611 120.022 48.3241C120.341 48.7881 120.25 49.4196 119.811 49.7733L117.707 51.4944L121.122 49.5231C121.607 49.2423 122.226 49.3812 122.545 49.8413C122.865 50.3013 122.778 50.9299 122.344 51.2855L116.906 55.767L122.033 52.8076C122.521 52.5278 123.142 52.6716 123.458 53.1366C123.774 53.6026 123.678 54.2322 123.238 54.5829L120.037 57.1049L122.577 55.64C123.053 55.3503 123.669 55.4715 124 55.9188C124.331 56.365 124.268 56.9906 123.854 57.361L120.578 60.4387L123.205 58.9324C123.618 58.6881 124.142 58.7462 124.491 59.0742C124.841 59.4023 124.93 59.9215 124.712 60.3491L123.231 63.275C123.747 62.9785 124.406 63.1558 124.704 63.671C125 64.1873 124.823 64.8463 124.308 65.1439L121.187 66.9447C120.775 67.1891 120.25 67.1319 119.901 66.8029C119.551 66.4748 119.462 65.9556 119.68 65.5291L121.163 62.6021L113.62 66.9044C113.457 67.0029 113.272 67.0551 113.082 67.0571Z" fill="#F2994A"/>
<path id="Vector_4" d="M16.414 105.793C15.9273 105.793 15.5008 105.466 15.3747 104.996C15.2486 104.525 15.4544 104.028 15.8761 103.785L16.279 103.552C16.4613 103.446 16.6711 103.396 16.881 103.409L20.4906 103.623L72.1764 73.7905C72.6808 73.5137 73.3133 73.6821 73.6138 74.1737C73.9133 74.6653 73.7724 75.3047 73.2956 75.6269L65.0891 80.8926L77.3909 73.7905C77.8933 73.5137 78.5258 73.6802 78.8263 74.1698C79.1278 74.6594 78.9908 75.2988 78.516 75.6219L65.5196 84.1062L83.3994 73.7757C83.9038 73.5058 84.5324 73.6782 84.8279 74.1688C85.1235 74.6584 84.9836 75.2949 84.5097 75.616L82.9 76.6337L87.8504 73.7757C88.3519 73.4989 88.9834 73.6634 89.2848 74.1511C89.5863 74.6377 89.4533 75.2771 88.9824 75.6022L73.7734 85.6273L94.3062 73.7905C94.8077 73.5097 95.4421 73.6723 95.7465 74.1609C96.05 74.6486 95.916 75.2899 95.4431 75.616L78.1032 87.1858L101.305 73.7905C101.804 73.5127 102.434 73.6743 102.738 74.158C103.044 74.6417 102.917 75.2791 102.45 75.6091L81.9641 89.5985L109.363 73.7905C109.868 73.5028 110.51 73.6683 110.814 74.1649C111.116 74.6614 110.97 75.3086 110.484 75.6269L101.445 81.4374L114.33 74.0063C114.659 73.8073 115.069 73.7994 115.406 73.9846C115.742 74.1698 115.954 74.5215 115.962 74.9057C115.97 75.2899 115.772 75.6495 115.442 75.8485L113.572 77.0297L117.386 74.8151C117.886 74.5333 118.52 74.6949 118.825 75.1806C119.129 75.6672 118.999 76.3076 118.529 76.6357L99.7897 89.4103L120.958 77.1933C121.459 76.9233 122.084 77.0908 122.383 77.5745C122.683 78.0592 122.554 78.6927 122.088 79.0208L112.01 85.6687L122.863 79.403C123.364 79.1124 124.006 79.271 124.314 79.7616C124.623 80.2522 124.487 80.8985 124.008 81.2236L111.814 89.5482L124.439 82.261C124.932 81.9782 125.562 82.129 125.873 82.6058C126.185 83.0816 126.072 83.719 125.616 84.0589L111.875 94.1992L125.529 86.3159C126.025 86.0381 126.651 86.1938 126.96 86.6706C127.268 87.1474 127.153 87.7818 126.696 88.1198L119.796 93.0889L125.712 89.6734C126.208 89.3955 126.833 89.5512 127.142 90.028C127.45 90.5048 127.335 91.1393 126.879 91.4772L124.613 93.1106L125.366 92.6801C125.836 92.4092 126.433 92.5294 126.761 92.9609C127.089 93.3924 127.044 94.0002 126.657 94.3805L121.599 99.3428L122.389 98.8866C122.723 98.6748 123.146 98.662 123.491 98.8551C123.837 99.0472 124.048 99.4137 124.042 99.8097C124.038 100.205 123.816 100.565 123.465 100.749L115.329 105.449C114.859 105.719 114.262 105.599 113.934 105.167C113.607 104.736 113.65 104.128 114.037 103.748L119.095 98.798L107.213 105.642C106.717 105.92 106.092 105.765 105.783 105.288C105.475 104.811 105.59 104.177 106.046 103.839L108.325 102.199L102.353 105.642C101.858 105.92 101.232 105.765 100.924 105.288C100.615 104.811 100.73 104.177 101.187 103.839L108.074 98.8738L96.3554 105.642C95.8608 105.925 95.2323 105.774 94.92 105.298C94.6087 104.822 94.721 104.185 95.1781 103.845L108.921 93.7017L88.2415 105.642C87.7421 105.92 87.1125 105.759 86.8081 105.275C86.5037 104.792 86.6308 104.154 87.0968 103.823L99.2843 95.4987L81.7168 105.642C81.2143 105.919 80.5838 105.754 80.2814 105.267C79.9799 104.78 80.1129 104.141 80.5848 103.815L90.6739 97.1606L75.9811 105.642C75.4817 105.92 74.8521 105.759 74.5477 105.275C74.2433 104.792 74.3694 104.154 74.8364 103.823L93.5595 91.0487L68.2919 105.642C67.7855 105.92 67.1511 105.75 66.8526 105.256C66.5531 104.762 66.6979 104.121 67.1787 103.802L69.0534 102.618L63.8104 105.642C63.306 105.92 62.6725 105.751 62.373 105.26C62.0735 104.768 62.2144 104.128 62.6912 103.807L71.7301 97.9961L58.4757 105.642C57.9762 105.92 57.3467 105.759 57.0423 105.275C56.7379 104.792 56.864 104.154 57.3309 103.823L77.8165 89.8349L50.418 105.642C49.9166 105.924 49.2821 105.76 48.9787 105.272C48.6743 104.784 48.8083 104.143 49.2821 103.817L66.6211 92.2476L43.4194 105.642C42.917 105.919 42.2865 105.754 41.984 105.267C41.6825 104.78 41.8155 104.141 42.2874 103.815L57.4945 93.8052L36.9606 105.642C36.4553 105.92 35.8198 105.75 35.5213 105.256C35.2228 104.762 35.3666 104.121 35.8484 103.802L37.4582 102.784L32.5057 105.642C32.0023 105.919 31.3708 105.752 31.0703 105.263C30.7689 104.774 30.9058 104.135 31.3807 103.811L44.3858 95.3203L26.508 105.651C26.0036 105.929 25.3702 105.759 25.0707 105.268C24.7712 104.777 24.9111 104.137 25.3889 103.815L33.6121 98.5399L21.2866 105.642C21.1073 105.752 20.8965 105.804 20.6867 105.787L17.075 105.571L16.9519 105.642C16.7894 105.739 16.6041 105.792 16.414 105.793Z" fill="#F0C74B"/>
<path id="Vector_5" d="M24.844 99.7459C24.3672 99.7459 23.9466 99.4326 23.8106 98.9745C23.6756 98.5164 23.8579 98.0248 24.2589 97.7657L26.641 96.2269C26.2312 96.2831 25.8263 96.0949 25.6066 95.7452C25.2952 95.2634 25.4164 94.6221 25.8814 94.2881L37.004 86.2728L27.9286 91.5119C27.434 91.7986 26.8026 91.6498 26.4883 91.173C26.174 90.6962 26.2873 90.0568 26.7464 89.7169L33.5372 84.6266L27.7257 87.982C27.2547 88.2658 26.6449 88.1485 26.3129 87.7092C25.9809 87.2708 26.0331 86.6521 26.4351 86.2757L32.8909 80.0574L26.5169 83.7379C26.0479 84.0049 25.4539 83.8837 25.1278 83.4542C24.8007 83.0247 24.8431 82.4198 25.2253 82.0395L27.4203 79.8879L25.0746 81.2415C24.6253 81.4977 24.0579 81.3992 23.7229 81.0061C23.387 80.613 23.3781 80.0367 23.7012 79.6337L24.5623 78.5579L23.4087 79.2229C23.0185 79.4495 22.5279 79.4081 22.1811 79.1195C21.8344 78.8308 21.7033 78.357 21.855 77.9314L22.1476 77.1117L21.4482 77.5166C21.1575 77.6831 20.8058 77.7058 20.4965 77.5767L16.4514 75.8931C15.9312 76.0201 15.3973 75.7463 15.1973 75.2507C14.9973 74.7542 15.1924 74.1868 15.6544 73.9178L15.8849 73.7868C16.1736 73.6183 16.5243 73.5947 16.8336 73.7218L20.8413 75.3808L23.6106 73.7848C24.0017 73.5592 24.4904 73.6016 24.8362 73.8892C25.1829 74.1779 25.313 74.6508 25.1623 75.0754L24.8726 75.896L28.5305 73.7868C28.9798 73.5306 29.5472 73.6291 29.8822 74.0222C30.2181 74.4153 30.227 74.9906 29.9039 75.3946L29.0428 76.4704L33.6682 73.7907C34.1361 73.5237 34.7302 73.6449 35.0573 74.0744C35.3834 74.504 35.342 75.1089 34.9587 75.4891L32.7638 77.6407L39.4353 73.7868C39.9072 73.503 40.5171 73.6203 40.8491 74.0587C41.1811 74.4981 41.1279 75.1167 40.7269 75.4931L34.2701 81.7085L48.0053 73.7907C48.4979 73.5129 49.1215 73.6636 49.4328 74.1355C49.7441 74.6084 49.6368 75.2409 49.1865 75.5837L42.3968 80.678L54.3281 73.7907C54.8237 73.5129 55.4492 73.6686 55.7576 74.1454C56.0669 74.6222 55.9517 75.2566 55.4946 75.5946L44.3789 83.6109L61.3849 73.7907C61.8893 73.509 62.5257 73.6755 62.8281 74.168C63.1296 74.6606 62.9887 75.3029 62.5089 75.6241L61.5858 76.2231L65.7974 73.7907C66.1304 73.5789 66.554 73.5671 66.8988 73.7592C67.2437 73.9523 67.4555 74.3178 67.4505 74.7138C67.4446 75.1089 67.223 75.4694 66.8732 75.6527L25.3839 99.6011C25.2204 99.6967 25.0342 99.7469 24.844 99.7459Z" fill="#F0C74B"/>
<path id="Vector_6" d="M17.0672 105.393C16.6318 105.392 16.2397 105.128 16.0742 104.725C15.9097 104.322 16.0033 103.859 16.3126 103.552L19.6907 100.213L11.4055 104.997C10.9169 105.288 10.2844 105.149 9.9642 104.678C9.64402 104.208 9.74549 103.569 10.1957 103.221L15.2043 99.2394L8.20961 103.275C7.71703 103.553 7.09342 103.403 6.78211 102.93C6.47079 102.458 6.57818 101.825 7.0284 101.482L11.834 97.8946L5.98412 101.274C5.49055 101.556 4.86103 101.406 4.54972 100.929C4.23742 100.453 4.35071 99.8157 4.80685 99.4768L10.5642 95.2258L4.34677 98.8138C3.85124 99.1024 3.2158 98.9517 2.90252 98.4709C2.58924 97.9902 2.70844 97.3488 3.17344 97.0119L8.55344 93.1018L3.21679 96.1726C2.72913 96.4504 2.10946 96.3075 1.79421 95.8435C1.47797 95.3795 1.57156 94.751 2.00897 94.3993L11.1966 87.1149L2.3725 92.2023C1.87499 92.489 1.23956 92.3343 0.92923 91.8506C0.618902 91.3669 0.744019 90.7246 1.21296 90.3926L2.22669 89.6734C1.7351 89.899 1.15286 89.7256 0.866179 89.2675C0.578511 88.8094 0.675057 88.2094 1.09277 87.8656L7.09243 82.9713L3.17344 85.2402C2.7045 85.5071 2.11143 85.386 1.78435 84.9564C1.45826 84.5269 1.49964 83.922 1.88189 83.5417L5.93092 79.5498C5.61567 79.4976 5.34179 79.3065 5.18318 79.0287C4.88763 78.5144 5.06397 77.8583 5.57725 77.5608L11.4203 74.1846C11.8892 73.9176 12.4833 74.0388 12.8094 74.4683C13.1354 74.8979 13.0941 75.5018 12.7118 75.8821L9.37408 79.1705L17.6032 74.4358C18.0889 74.159 18.7056 74.2999 19.0228 74.759C19.34 75.219 19.2533 75.8456 18.8218 76.2012L12.8212 81.0837L21.0276 76.35C21.5251 76.0623 22.1606 76.217 22.4709 76.7007C22.7812 77.1844 22.6561 77.8268 22.1872 78.1598L21.2168 78.8484L22.795 77.9381C23.2827 77.6583 23.9043 77.8021 24.2196 78.2671C24.5358 78.7321 24.4402 79.3626 23.9999 79.7134L14.8142 86.9938L25.0047 81.1084C25.5003 80.8187 26.1357 80.9695 26.449 81.4502C26.7623 81.931 26.6421 82.5733 26.1781 82.9092L20.8129 86.8213L26.0116 83.8215C26.5061 83.5388 27.1347 83.6895 27.447 84.1653C27.7593 84.6422 27.646 85.2786 27.1889 85.6185L21.4325 89.8695L26.5978 86.8864C27.0903 86.6086 27.7139 86.7593 28.0253 87.2312C28.3366 87.7031 28.2282 88.3365 27.779 88.6794L22.9753 92.2644L26.6598 90.1364C27.1485 89.8438 27.78 89.9837 28.1011 90.4537C28.4213 90.9246 28.3198 91.5639 27.8696 91.9117L22.863 95.8908L25.853 94.1687C26.3209 93.9057 26.911 94.0278 27.2361 94.4554C27.5612 94.882 27.5218 95.4839 27.1435 95.8652L23.0787 99.8856C23.525 99.9605 23.8767 100.308 23.9575 100.754C24.0383 101.2 23.8314 101.648 23.4403 101.876L17.6061 105.248C17.4426 105.343 17.2564 105.394 17.0672 105.393Z" fill="#F4D26A"/>
<path id="Vector_7" d="M75.4203 123.025C75.038 123.026 74.6834 122.824 74.4893 122.495C74.2952 122.165 74.2903 121.758 74.4775 121.424L74.6577 121.101L72.6411 122.266C72.184 122.53 71.6018 122.423 71.2688 122.013C70.9348 121.603 70.9486 121.011 71.3013 120.617L71.4816 120.417L69.329 121.654C68.996 121.866 68.5734 121.879 68.2276 121.686C67.8828 121.494 67.6709 121.127 67.6759 120.732C67.6818 120.336 67.9034 119.975 68.2532 119.793L76.2163 115.191C76.6744 114.927 77.2556 115.035 77.5896 115.445C77.9226 115.854 77.9088 116.446 77.5571 116.84L77.2596 117.17C77.6724 117.084 78.096 117.246 78.3452 117.586C78.5945 117.925 78.623 118.379 78.4181 118.747L77.9876 119.515C78.2979 119.571 78.5679 119.761 78.7255 120.033C78.8693 120.282 78.9078 120.575 78.8329 120.852C78.759 121.128 78.5777 121.363 78.3295 121.505L75.9434 122.881C75.7838 122.973 75.6035 123.022 75.4203 123.025Z" fill="#C44949"/>
<path id="Vector_8" d="M59.7931 127.508C59.3262 127.516 58.9085 127.222 58.7577 126.781C58.606 126.34 58.7567 125.851 59.1301 125.571L63.124 122.457L58.6326 125.055C58.1538 125.333 57.541 125.202 57.2179 124.751C56.8948 124.3 56.9667 123.679 57.3844 123.313L65.6342 116.078L58.2977 120.32C57.813 120.603 57.1933 120.467 56.8721 120.008C56.551 119.548 56.6357 118.918 57.0682 118.562L63.1762 113.457L58.011 116.436C57.5253 116.712 56.9096 116.572 56.5913 116.113C56.2741 115.652 56.3618 115.026 56.7933 114.67L59.5133 112.454L57.7913 113.449C57.3174 113.72 56.7145 113.592 56.3904 113.152C56.0663 112.712 56.1234 112.099 56.5244 111.727L57.8149 110.526L57.5844 110.657C57.2297 110.862 56.7884 110.846 56.4485 110.618C56.1076 110.39 55.9273 109.987 55.9815 109.581L56.4337 106.482C56.1608 106.409 55.9283 106.229 55.7874 105.985C55.4899 105.471 55.6653 104.813 56.1795 104.515L57.2169 103.916C57.5736 103.71 58.0179 103.726 58.3587 103.958C58.7006 104.189 58.8799 104.595 58.8198 105.003L58.4267 107.693L65.0057 103.894C65.4805 103.62 66.0864 103.745 66.4115 104.187C66.7376 104.628 66.6785 105.244 66.2755 105.617L64.984 106.819L70.0714 103.884C70.5571 103.607 71.1738 103.748 71.491 104.207C71.8082 104.667 71.7206 105.293 71.29 105.649L68.569 107.866L72.8732 105.386C73.3579 105.103 73.9776 105.239 74.2987 105.698C74.6199 106.158 74.5352 106.787 74.1027 107.145L67.9986 112.248L74.0249 108.763C74.5036 108.489 75.1115 108.622 75.4327 109.07C75.7538 109.518 75.6849 110.136 75.2731 110.502L67.0262 117.731L75.4435 112.873C75.9321 112.595 76.5528 112.741 76.8671 113.208C77.1813 113.674 77.0828 114.305 76.6424 114.653L64.5446 124.092C64.6333 124.544 64.4264 125.001 64.0284 125.231L60.335 127.362C60.1705 127.459 59.9833 127.509 59.7931 127.508Z" fill="#C44949"/>
<path id="Vector_9" d="M50.8476 105.793C50.3609 105.793 49.9343 105.465 49.8082 104.996C49.6821 104.525 49.888 104.028 50.3097 103.785L50.7116 103.552C50.889 103.447 51.0939 103.397 51.2998 103.408L56.0985 103.623L82.7187 88.2527C83.2054 87.967 83.83 88.1059 84.1502 88.5709C84.4694 89.0368 84.3758 89.6693 83.9344 90.022L75.4137 96.9083L82.2488 92.9637C82.7286 92.6928 83.3354 92.8278 83.6546 93.277C83.9738 93.7253 83.9039 94.342 83.4911 94.7075L79.5199 98.1506L80.0243 97.86C80.3573 97.6482 80.7809 97.6354 81.1257 97.8285C81.4705 98.0206 81.6823 98.3871 81.6774 98.7821C81.6715 99.1782 81.4498 99.5387 81.1001 99.722L70.8514 105.642C70.3716 105.913 69.7658 105.778 69.4456 105.33C69.1264 104.881 69.1973 104.264 69.6101 103.899L73.5803 100.455L64.5936 105.642C64.107 105.921 63.4893 105.78 63.171 105.319C62.8538 104.858 62.9435 104.229 63.3769 103.875L71.8977 96.9881L56.9103 105.642C56.7359 105.752 56.53 105.802 56.3251 105.787L51.5234 105.571L51.3944 105.647C51.2289 105.743 51.0397 105.795 50.8476 105.793Z" fill="#EB5757"/>
<path id="Vector_10" d="M57.4199 102.123C56.951 102.125 56.5343 101.822 56.3914 101.373C56.2495 100.926 56.4141 100.437 56.7983 100.168L62.0758 96.4396L61.1586 96.9697C60.6729 97.2475 60.0543 97.1066 59.737 96.6455C59.4198 96.1845 59.5085 95.5569 59.9429 95.2023L68.8804 87.9751L62.3339 91.7611C61.8561 92.033 61.2512 91.901 60.9291 91.4557C60.6079 91.0104 60.6729 90.3946 61.0808 90.0262L68.6735 83.2778L62.0542 87.0973C61.5645 87.3751 60.9439 87.2293 60.6306 86.7623C60.3163 86.2964 60.4138 85.6668 60.8552 85.3171L61.8601 84.5359L61.3498 84.8294C60.9015 85.0876 60.3321 84.99 59.9952 84.596C59.6582 84.2029 59.6494 83.6246 59.9755 83.2216L63.7585 78.551L59.4001 81.0651C58.9607 81.3242 58.3982 81.2336 58.0613 80.8494C57.7214 80.4711 57.6938 79.9046 57.9953 79.4938L58.942 78.2022L57.5943 78.9815C57.3352 79.1312 57.0259 79.1657 56.7392 79.0771C56.4535 78.9884 56.218 78.7845 56.088 78.5145L54.9905 76.223L54.2034 76.6772C53.9275 76.8378 53.5935 76.8663 53.295 76.754L50.9168 75.8782C50.3957 76.023 49.8479 75.758 49.6371 75.2595C49.4273 74.7601 49.6204 74.1837 50.0883 73.9108L50.3188 73.7798C50.5947 73.6192 50.9287 73.5907 51.2291 73.7L53.566 74.561L54.9196 73.7778C55.1806 73.6281 55.4929 73.5936 55.7806 73.6833C56.0643 73.7729 56.2978 73.9768 56.4259 74.2448L57.5234 76.5373L62.3034 73.7906C62.7438 73.5384 63.3014 73.6281 63.6403 74.0054C63.9792 74.3837 64.0077 74.9472 63.7092 75.3571L62.7645 76.6486L67.7139 73.7926C68.1632 73.5365 68.7306 73.636 69.0656 74.0281C69.4015 74.4212 69.4104 74.9975 69.0873 75.4004L65.3032 80.0662L74.3747 74.828C74.8643 74.5502 75.4839 74.696 75.7982 75.163C76.1125 75.629 76.015 76.2595 75.5736 76.6082L74.5687 77.3865L76.7469 76.1324C77.2247 75.8556 77.8346 75.9856 78.1577 76.4338C78.4818 76.8821 78.4128 77.5028 77.9991 77.8692L70.4084 84.6157L79.7182 79.2357C80.2039 78.9618 80.8186 79.1046 81.1339 79.5637C81.4491 80.0228 81.3624 80.6474 80.9319 81.0021L71.9925 88.2342L81.5654 82.7044C82.0629 82.4256 82.6914 82.5823 82.9988 83.063C83.3062 83.5438 83.185 84.1802 82.723 84.5152L77.4356 88.244L82.385 85.3861C82.719 85.1742 83.1416 85.1624 83.4865 85.3545C83.8323 85.5476 84.0441 85.9141 84.0382 86.3092C84.0332 86.7042 83.8116 87.0648 83.4608 87.248L57.9588 101.983C57.7943 102.077 57.6091 102.125 57.4199 102.123Z" fill="#EB5757"/>
<g id="Group">
<path id="Vector_11" d="M21.6716 40.8182C21.8056 40.9128 21.9573 40.9788 22.1169 41.0113C21.8814 41.5029 21.6962 42.0172 21.5642 42.5462C19.7732 49.5251 21.5642 59.2251 21.5642 66.4345C21.5642 67.3281 23.772 66.6089 24.0774 66.4345C44.0457 54.7958 75.0312 54.9209 95.0468 66.7449C95.7936 67.1754 97.8447 66.5981 97.8447 65.6021V40.1966L116.25 25.4733V48.1311C114.787 48.0218 113.315 48.1676 111.902 48.5616C107.382 50.0956 107.451 57.3247 106.791 61.2723C105.783 67.3104 111.31 66.7084 115.554 66.7084C119.678 66.7084 128.305 67.9517 127.914 61.491L126.657 54.9337C126.27 52.9112 126.226 50.0719 124.348 48.7941C122.794 48.0671 121.058 47.8257 119.366 48.1006V22.5828C119.366 22.5641 119.34 22.5532 119.335 22.5355C119.32 22.4872 119.293 22.4439 119.253 22.4114C119.236 22.3927 119.216 22.3779 119.193 22.3661C119.146 22.3316 119.129 22.2922 119.053 22.2646L87.9359 10.7697L67.0986 3.07649C65.0377 2.31397 62.2368 0.631308 59.9542 0.638205C57.6361 0.638205 54.7437 2.42628 52.6492 3.20555L32.9193 10.5332L0.993936 22.3936C0.699371 22.503 -0.396134 23.164 0.150633 23.6015L21.6716 40.8182ZM24.6852 64.276V49.5173C24.6852 41.4832 22.8449 40.7384 29.8928 37.8805C45.6929 31.6966 63.02 30.5577 79.493 34.6225C79.8546 34.7171 80.2073 34.8225 80.5688 34.923C81.4919 35.1772 82.4111 35.4441 83.3174 35.7367C84.2238 36.0293 85.1144 36.3613 85.9991 36.6943C86.4296 36.852 86.8443 36.9938 87.2601 37.1593C88.5516 37.6775 89.8186 38.2351 91.0628 38.8341L91.1899 38.8903C92.4076 39.4833 93.5878 40.1247 94.7404 40.7946V63.7943C74.3662 53.3092 44.9018 53.7929 24.6803 64.2741L24.6852 64.276ZM121.43 49.8847C123.259 50.9783 123.336 54.6411 123.685 56.4637L124.809 62.3303C125.058 66.4523 122.251 65.3784 119.324 65.3784C117.135 65.5508 114.935 65.5508 112.745 65.3784C107.501 64.4977 110.75 55.6933 111.519 52.2206C111.689 51.46 111.797 49.8808 112.455 49.4956C112.922 49.2247 114.439 49.4956 114.926 49.4956C115.356 49.4956 115.847 49.4631 116.379 49.4247C117.025 49.6335 117.725 49.598 118.348 49.3251C119.404 49.2385 120.466 49.4306 121.425 49.8828L121.43 49.8847ZM27.2368 14.3104L55.0944 3.96314C56.2588 3.53263 57.6765 2.73858 59.0006 2.34648C58.2794 2.85286 62.7944 3.8794 63.9894 4.31977L115.722 23.431C109.696 28.1007 102.213 32.5665 97.2891 38.2006C97.0408 38.4637 96.7551 38.6873 96.4408 38.8666L96.0537 38.6922C95.767 38.5366 95.4793 38.3839 95.1926 38.2332C92.5839 36.3899 89.6176 35.1141 86.4857 34.4866C73.384 30.3439 59.4685 29.4652 45.9501 31.9281L45.4575 32.0138C44.0595 32.2621 42.6783 32.5399 41.3119 32.8463C40.7612 32.9694 40.2085 33.0857 39.6598 33.2187C38.1948 33.5792 36.7516 33.9703 35.3309 34.394C35.1329 34.4541 34.929 34.4974 34.731 34.5575C34.464 34.6412 34.1822 34.7575 33.9044 34.8629C33.0976 35.124 32.2838 35.3732 31.4967 35.655C28.6929 36.3338 26.027 37.4913 23.6173 39.0774C23.4025 38.8814 23.1464 38.6144 22.7908 38.2164C20.9909 36.5052 19.0471 34.9516 16.9802 33.5743C13.4918 30.7764 10.1107 27.5894 6.39561 25.1078C5.44295 24.5049 4.53167 23.8389 3.66965 23.1128L3.90412 22.9897C10.9067 19.1052 19.7604 17.0885 27.2368 14.3104Z" fill="#262626"/>
<path id="Vector_12" d="M127.983 89.2991C127.053 78.5381 120.451 73.631 110.375 73.4763C99.5772 73.3088 88.765 73.4763 77.9656 73.4763H14.643C14.113 73.495 13.6184 73.7512 13.2963 74.1738C5.5105 75.4338 -0.148298 82.2492 0.0438098 90.1335C0.0438098 97.8818 5.46912 104.947 13.1111 105.353C13.2549 105.696 13.6431 105.956 14.3849 105.956H55.1077C55.3255 108.826 55.5412 111.692 55.753 114.554C55.9116 116.681 56.0653 118.808 56.2161 120.938C56.0791 122.677 56.2988 124.425 56.8613 126.076C59.1046 129.772 63.2856 126.012 65.2274 124.239C66.581 123.004 67.379 121.85 68.6873 121.83C70.6586 122.008 72.6092 122.368 74.5136 122.907H74.5697C74.7963 122.952 75.0288 122.963 75.2583 122.939C80.6777 122.497 79.3606 118.523 78.0779 114.782C77.073 111.84 76.0622 108.898 75.0455 105.958H78.732C94.7932 105.958 125.989 112.884 128 89.6025C127.997 89.5296 127.984 89.4567 127.964 89.3867C127.971 89.3572 127.987 89.3316 127.983 89.2991ZM67.3681 103.607H54.5659C64.8658 97.9932 66.3337 81.4542 56.3067 75.8269H71.9206C78.3764 77.548 81.4541 83.727 81.8205 90.1335C81.4846 95.945 79.0227 101.77 73.3796 103.607H67.3681ZM3.15989 89.2991C3.15004 86.5278 3.83473 83.7989 5.15289 81.3616C7.0779 78.2484 10.3358 76.2003 13.976 75.8161C22.415 76.8081 26.6739 85.5387 25.5439 92.9747C25.5054 93.2033 25.469 93.4289 25.4237 93.6525C24.5666 98.867 20.3698 102.89 15.1238 103.525C13.2244 103.755 11.3033 103.328 9.68071 102.313C5.4839 99.3241 3.04167 94.4495 3.15989 89.2991ZM25.1114 99.9645C27.4965 96.9075 28.8521 93.1737 28.9851 89.2991C28.8787 87.0992 28.393 84.9338 27.5497 82.8984C26.4551 79.9873 24.4493 77.5066 21.8318 75.8269H50.5888C62.1211 79.4503 64.1467 99.9536 52.3443 103.607H21.1382C22.6711 102.637 24.0188 101.405 25.1202 99.9645H25.1114ZM72.5166 108.513C73.1107 110.247 73.7057 111.98 74.3027 113.712C74.6702 114.788 77.0169 120.311 75.876 121.03C73.2525 120.464 69.8498 119.248 67.2992 120.053C65.9948 120.637 64.8304 121.495 63.8866 122.569C62.5044 123.832 60.4749 127.026 59.6188 124.11C59.0198 120.642 58.7647 117.124 58.8543 113.607C58.6681 111.059 58.477 108.513 58.28 105.967H71.6408C71.892 106.83 72.1876 107.68 72.5255 108.513H72.5166ZM101.63 103.607H75.749C80.8472 101.443 84.4825 97.2572 84.9406 89.2991C84.51 81.8896 81.2689 77.9164 76.6701 75.8269H100.632C111.782 75.8269 123.376 74.5137 124.833 89.8951C123.476 105.155 112.303 103.607 101.639 103.607H101.63Z" fill="#262626"/>
<path id="Vector_13" d="M15.5204 82.6151C14.8209 82.5462 11.9521 83.7658 13.5057 83.9195C17.3577 84.2978 17.7587 90.5171 16.7055 93.1328C14.6377 98.2822 11.889 91.9811 11.7669 89.3054C11.7413 88.733 8.60942 89.2453 8.6508 90.1408C8.76902 92.7229 9.83891 96.1198 12.7609 96.7483C14.5608 97.0173 16.3903 96.5148 17.7991 95.3642C21.6757 92.2372 21.3614 83.1806 15.5204 82.6151Z" fill="#262626"/>
<path id="Vector_14" d="M88.6076 44.6248C70.0993 37.3927 49.5369 37.4509 31.0699 44.7884C29.0681 45.5745 30.8552 47.0119 32.391 46.407C49.8817 39.5719 69.3151 39.6281 86.7653 46.5666C87.9466 47.0375 90.3996 45.342 88.6076 44.6248Z" fill="#262626"/>
</g>
</g>
<defs>
<clipPath id="clip0_2005_10196">
<rect width="128" height="128" fill="white"/>
</clipPath>
</defs>
</svg>
