<svg width="128" height="128" viewBox="0 0 128 128" fill="none" xmlns="http://www.w3.org/2000/svg">
<g id="man 1">
<path id="Vector" d="M39.8301 126.87C39.5997 126.87 39.3754 126.796 39.1907 126.658C39.0061 126.52 38.871 126.326 38.8057 126.105C38.7403 125.884 38.7483 125.648 38.8284 125.432C38.9084 125.216 39.0563 125.032 39.2498 124.907L61.2231 110.699L33.6285 126.631C33.388 126.765 33.1048 126.801 32.8383 126.731C32.5718 126.662 32.3426 126.492 32.1987 126.257C32.0547 126.022 32.0073 125.74 32.0662 125.471C32.1252 125.202 32.2859 124.966 32.5149 124.813L59.1581 107.593L29.8674 124.504C29.6256 124.637 29.3415 124.671 29.0749 124.599C28.8084 124.527 28.5801 124.355 28.4381 124.118C28.296 123.881 28.2514 123.599 28.3134 123.33C28.3755 123.061 28.5395 122.826 28.7709 122.675L35.7618 118.343L28.6813 122.428C28.4394 122.561 28.1554 122.595 27.8888 122.523C27.6222 122.452 27.3939 122.279 27.2519 122.042C27.1099 121.805 27.0652 121.523 27.1273 121.254C27.1894 120.985 27.3534 120.75 27.5847 120.6L39.7618 112.99L28.3314 119.586C28.0909 119.721 27.8078 119.757 27.5412 119.687C27.2747 119.617 27.0455 119.447 26.9016 119.212C26.7577 118.978 26.7102 118.696 26.7692 118.427C26.8281 118.158 26.9889 117.922 27.2178 117.769L54.8935 99.7399L28.3314 115.074C28.0907 115.207 27.8083 115.241 27.5429 115.17C27.2775 115.1 27.0496 114.929 26.9066 114.695C26.7636 114.46 26.7166 114.18 26.7754 113.911C26.8342 113.643 26.9942 113.408 27.2221 113.255L47.5591 100.169L28.3314 111.262C28.0922 111.393 27.8121 111.427 27.5486 111.357C27.2851 111.288 27.0581 111.12 26.9143 110.889C26.7704 110.657 26.7206 110.38 26.7751 110.113C26.8296 109.846 26.9841 109.61 27.2071 109.453L51.9538 92.9687L28.3314 106.616C28.0907 106.756 27.8047 106.796 27.5346 106.728C27.2646 106.66 27.0318 106.489 26.8861 106.252C26.7404 106.014 26.6933 105.729 26.7549 105.458C26.8165 105.186 26.9819 104.949 27.2157 104.798L42.3346 94.9143L28.3314 102.998C28.0913 103.13 27.8095 103.164 27.5445 103.095C27.2795 103.025 27.0516 102.855 26.9081 102.622C26.7646 102.388 26.7164 102.108 26.7737 101.84C26.831 101.572 26.9893 101.337 27.2157 101.182L36.3165 95.245L28.3741 99.8274C28.1375 99.96 27.8592 99.9975 27.596 99.9323C27.3327 99.8671 27.1042 99.704 26.9569 99.4762C26.8096 99.2485 26.7546 98.9732 26.803 98.7063C26.8515 98.4394 26.9998 98.2011 27.2178 98.0397L43.6445 86.1869L29.2039 94.5239C28.9681 94.6561 28.691 94.6938 28.4285 94.6294C28.1659 94.565 27.9377 94.4034 27.7897 94.1772C27.6418 93.951 27.5853 93.677 27.6316 93.4107C27.6779 93.1444 27.8235 92.9056 28.0391 92.7426L38.2023 85.261L31.2839 89.2546C31.0532 89.3865 30.7815 89.4274 30.5221 89.3695C30.2627 89.3115 30.0343 89.1588 29.8816 88.9412C29.729 88.7237 29.663 88.457 29.6967 88.1933C29.7303 87.9297 29.8612 87.6881 30.0637 87.5159L36.2781 82.2701C36.0506 82.254 35.8342 82.1653 35.6608 82.0172C35.4873 81.8691 35.3659 81.6693 35.3144 81.4471C35.2628 81.225 35.2838 80.9921 35.3743 80.7827C35.4649 80.5734 35.6201 80.3986 35.8173 80.2839L44.8221 75.0935C45.0528 74.9617 45.3245 74.9207 45.5839 74.9787C45.8433 75.0366 46.0717 75.1893 46.2244 75.4069C46.3771 75.6244 46.443 75.8912 46.4094 76.1548C46.3757 76.4184 46.2448 76.66 46.0423 76.8322L40.6087 81.4189L53.7863 73.8135C54.0221 73.6814 54.2993 73.6437 54.5618 73.7081C54.8243 73.7724 55.0526 73.9341 55.2006 74.1603C55.3485 74.3865 55.405 74.6604 55.3587 74.9267C55.3124 75.193 55.1667 75.4318 54.9511 75.5949L44.8007 83.0658L60.8306 73.8135C61.0672 73.6809 61.3454 73.6434 61.6087 73.7086C61.872 73.7739 62.1005 73.937 62.2478 74.1647C62.3951 74.3925 62.4501 74.6678 62.4016 74.9346C62.3532 75.2015 62.2049 75.4399 61.9869 75.6013L45.5602 87.4541L69.1805 73.8135C69.4206 73.6813 69.7024 73.6466 69.9674 73.7166C70.2324 73.7865 70.4603 73.9558 70.6038 74.1894C70.7473 74.4229 70.7954 74.7027 70.7382 74.9708C70.6809 75.2388 70.5226 75.4745 70.2962 75.629L61.2061 81.5597L74.5991 73.8135C74.8399 73.6735 75.1259 73.6332 75.3959 73.7013C75.666 73.7693 75.8987 73.9402 76.0444 74.1776C76.1901 74.4149 76.2372 74.6999 76.1756 74.9715C76.1141 75.2431 75.9487 75.4798 75.7149 75.6311L60.5874 85.5469L79.7874 74.4535C80.0274 74.311 80.3137 74.2682 80.5849 74.3343C80.8561 74.4004 81.0905 74.5702 81.2379 74.8073C81.3854 75.0443 81.434 75.3297 81.3734 75.6022C81.3128 75.8746 81.1478 76.1125 80.9138 76.2647L56.1671 92.7447L84.8498 76.1837C85.0914 76.0363 85.3817 75.9909 85.6567 76.0575C85.9318 76.1241 86.1691 76.2973 86.3165 76.5389C86.4639 76.7805 86.5092 77.0707 86.4426 77.3458C86.376 77.6208 86.2029 77.8581 85.9613 78.0055L65.637 91.0807L88.2013 78.0546C88.4418 77.9202 88.7249 77.8841 88.9914 77.9538C89.258 78.0235 89.4872 78.1936 89.6311 78.4285C89.775 78.6634 89.8225 78.9449 89.7635 79.214C89.7046 79.4831 89.5438 79.719 89.3149 79.8722L61.6178 97.9074L91.5058 80.653C91.747 80.5258 92.0277 80.4958 92.2904 80.5691C92.553 80.6425 92.7775 80.8136 92.9179 81.0474C93.0583 81.2811 93.1038 81.5598 93.0451 81.8261C92.9864 82.0923 92.828 82.326 92.6023 82.4791L80.4274 90.093L93.4109 82.5986C93.6527 82.4654 93.9368 82.4312 94.2034 82.5031C94.4699 82.575 94.6982 82.7475 94.8402 82.9843C94.9822 83.2211 95.0269 83.5037 94.9648 83.7727C94.9028 84.0417 94.7388 84.2762 94.5074 84.4269L87.5527 88.7469L94.8999 84.5037C95.1413 84.356 95.4313 84.3102 95.7064 84.3764C95.9815 84.4427 96.2189 84.6154 96.3666 84.8567C96.5143 85.098 96.5601 85.3881 96.4938 85.6632C96.4276 85.9382 96.2549 86.1757 96.0135 86.3234L69.3682 103.546L96.8541 87.6802C97.0946 87.5458 97.3777 87.5097 97.6442 87.5794C97.9108 87.6491 98.14 87.8192 98.2839 88.0541C98.4278 88.289 98.4753 88.5705 98.4163 88.8396C98.3574 89.1087 98.1966 89.3446 97.9677 89.4978L75.9751 103.702L98.2237 90.8589C98.463 90.7247 98.7449 90.6879 99.0107 90.7562C99.2765 90.8245 99.5057 90.9926 99.6507 91.2255C99.7958 91.4585 99.8455 91.7383 99.7895 92.007C99.7335 92.2756 99.5761 92.5123 99.3501 92.6679L75.1474 108.881L99.2797 94.9485C99.5187 94.8098 99.8022 94.7692 100.07 94.8354C100.339 94.9016 100.571 95.0693 100.718 95.3032C100.865 95.5371 100.916 95.819 100.859 96.0895C100.803 96.36 100.643 96.5979 100.415 96.7533L79.8791 110.778L99.6701 99.3517C99.9106 99.2173 100.194 99.1812 100.46 99.2509C100.727 99.3206 100.956 99.4907 101.1 99.7256C101.244 99.9605 101.291 100.242 101.232 100.511C101.173 100.78 101.013 101.016 100.784 101.169L95.6637 104.502L99.6701 102.187C99.908 102.048 100.19 102.006 100.458 102.071C100.726 102.136 100.959 102.301 101.107 102.534C101.255 102.766 101.308 103.046 101.254 103.317C101.2 103.587 101.044 103.826 100.818 103.983L88.0562 112.958L99.6701 106.255C99.9066 106.117 100.187 106.075 100.454 106.139C100.72 106.202 100.952 106.365 101.101 106.594C101.251 106.824 101.306 107.102 101.256 107.371C101.206 107.641 101.055 107.88 100.833 108.041L91.4098 114.914L99.6701 110.148C99.9003 110.018 100.171 109.977 100.43 110.035C100.688 110.092 100.916 110.244 101.069 110.461C101.221 110.677 101.288 110.942 101.256 111.205C101.224 111.468 101.095 111.71 100.895 111.883L92.5234 118.993L99.6701 114.87C99.8991 114.741 100.168 114.701 100.424 114.758C100.681 114.815 100.907 114.964 101.06 115.178C101.213 115.391 101.282 115.654 101.253 115.915C101.225 116.176 101.101 116.418 100.905 116.593L97.6669 119.424L99.6701 118.27C99.888 118.144 100.143 118.099 100.391 118.144C100.639 118.188 100.863 118.318 101.024 118.512C101.185 118.706 101.272 118.95 101.27 119.201C101.268 119.453 101.178 119.696 101.014 119.887L99.0621 122.168C99.2863 122.191 99.4975 122.284 99.6654 122.434C99.8333 122.585 99.9493 122.784 99.9966 123.005C100.044 123.225 100.02 123.455 99.9292 123.661C99.8379 123.867 99.6837 124.039 99.4887 124.152L95.1154 126.678C94.8975 126.803 94.6421 126.848 94.3943 126.804C94.1466 126.76 93.9225 126.629 93.7617 126.436C93.6008 126.242 93.5136 125.998 93.5153 125.746C93.5171 125.495 93.6078 125.252 93.7714 125.06L95.3351 123.234L89.2893 126.72C89.0602 126.851 88.7908 126.892 88.5331 126.836C88.2754 126.78 88.0477 126.63 87.8939 126.416C87.7401 126.202 87.6711 125.938 87.7003 125.676C87.7295 125.414 87.8548 125.172 88.0519 124.996L91.2882 122.168L83.3949 126.72C83.1646 126.851 82.8939 126.892 82.6354 126.834C82.3769 126.776 82.1492 126.624 81.9964 126.408C81.8437 126.192 81.7769 125.926 81.809 125.663C81.8412 125.401 81.97 125.159 82.1703 124.986L90.5394 117.873L75.2157 126.72C74.9791 126.858 74.6986 126.9 74.4321 126.837C74.1657 126.774 73.9337 126.61 73.7843 126.381C73.6349 126.151 73.5795 125.873 73.6295 125.604C73.6795 125.335 73.8311 125.095 74.053 124.935L83.4695 118.065L68.4807 126.72C68.2433 126.854 67.9639 126.891 67.6997 126.825C67.4355 126.759 67.2065 126.594 67.0598 126.365C66.913 126.136 66.8596 125.859 66.9104 125.591C66.9612 125.324 67.1124 125.086 67.333 124.926L80.0925 115.951L61.4407 126.72C61.2006 126.852 60.9189 126.887 60.6538 126.817C60.3888 126.747 60.1609 126.578 60.0174 126.344C59.8739 126.111 59.8258 125.831 59.883 125.563C59.9403 125.295 60.0986 125.059 60.325 124.905L65.4599 121.57L56.5341 126.72C56.2956 126.853 56.0154 126.889 55.751 126.821C55.4867 126.754 55.2584 126.587 55.113 126.356C54.9676 126.125 54.9162 125.848 54.9695 125.58C55.0227 125.312 55.1765 125.075 55.3991 124.918L75.9367 110.889L48.5063 126.72C48.2675 126.849 47.9884 126.883 47.726 126.813C47.4635 126.744 47.2374 126.577 47.0938 126.346C46.9502 126.116 46.8998 125.839 46.953 125.573C47.0061 125.307 47.1588 125.071 47.3799 124.913L71.5869 108.7L40.3634 126.72C40.2019 126.816 40.0179 126.868 39.8301 126.87Z" fill="#4C70F2"/>
<path id="Vector_2" d="M61.9463 83.9464C61.7307 83.9472 61.5199 83.8825 61.3418 83.7611C61.1636 83.6396 61.0265 83.467 60.9484 83.2661C60.8703 83.0651 60.855 82.8452 60.9044 82.6353C60.9538 82.4254 61.0657 82.2355 61.2252 82.0904L64.566 79.0334L59.1751 82.1438C58.9479 82.2738 58.6808 82.3158 58.4247 82.2618C58.1686 82.2077 57.9413 82.0613 57.7861 81.8505C57.6309 81.6397 57.5586 81.3792 57.583 81.1186C57.6075 80.8579 57.7269 80.6154 57.9186 80.4371L64.6642 74.227L56.7068 78.82C56.4714 78.9559 56.193 78.9968 55.9285 78.9343C55.664 78.8718 55.4333 78.7107 55.2835 78.4839C55.1337 78.2571 55.0762 77.9817 55.1227 77.7139C55.1691 77.4461 55.3161 77.2061 55.5335 77.043L57.5495 75.5347L56.118 76.3603C55.8826 76.4962 55.6042 76.537 55.3397 76.4746C55.0752 76.4121 54.8445 76.251 54.6947 76.0242C54.5449 75.7974 54.4874 75.5219 54.5339 75.2541C54.5803 74.9863 54.7273 74.7464 54.9447 74.5832L55.8834 73.8814C55.6574 73.9613 55.4111 73.9628 55.1842 73.8856C54.9573 73.8084 54.763 73.6571 54.6326 73.456C54.5022 73.2549 54.4434 73.0157 54.4656 72.7771C54.4877 72.5384 54.5896 72.3142 54.7548 72.1406L57.9847 68.7102L56.0647 69.8174C55.885 69.9208 55.6791 69.9696 55.4721 69.9578C55.2651 69.946 55.066 69.8742 54.8992 69.7511C54.7324 69.6279 54.6051 69.4589 54.5328 69.2645C54.4606 69.0702 54.4465 68.859 54.4924 68.6568L55.1324 65.8024C54.9446 65.7296 54.7812 65.6051 54.6612 65.4434C54.5411 65.2816 54.4694 65.0891 54.4542 64.8882C54.439 64.6873 54.481 64.4862 54.5754 64.3083C54.6698 64.1303 54.8126 63.9826 54.9874 63.8824L56.054 63.2638C56.2338 63.1597 56.44 63.1104 56.6473 63.1218C56.8547 63.1333 57.0542 63.205 57.2214 63.3282C57.3886 63.4515 57.5162 63.6208 57.5885 63.8155C57.6608 64.0102 57.6747 64.2218 57.6284 64.4243L57.0972 66.7454L63.1751 63.236C63.3969 63.1077 63.6574 63.0635 63.9091 63.1115C64.1608 63.1595 64.3868 63.2965 64.5458 63.4974C64.7048 63.6984 64.7861 63.9498 64.775 64.2058C64.7638 64.4618 64.6608 64.7052 64.485 64.8915L61.2572 68.3219L70.1106 63.2019C70.346 63.066 70.6244 63.0252 70.8889 63.0876C71.1534 63.1501 71.3841 63.3112 71.5339 63.538C71.6836 63.7648 71.7412 64.0403 71.6947 64.3081C71.6482 64.5759 71.5013 64.8158 71.2839 64.979L70.4668 65.5912L71.9196 64.7528C72.155 64.617 72.4334 64.5761 72.698 64.6386C72.9625 64.701 73.1932 64.8621 73.3429 65.089C73.4927 65.3158 73.5502 65.5912 73.5038 65.859C73.4573 66.1268 73.3104 66.3668 73.093 66.5299L71.0706 68.0446L71.9239 67.556C72.1511 67.426 72.4181 67.384 72.6743 67.438C72.9304 67.4921 73.1577 67.6385 73.3129 67.8493C73.4681 68.0601 73.5404 68.3206 73.5159 68.5812C73.4915 68.8419 73.3721 69.0844 73.1804 69.2627L66.4348 75.4707L71.9367 72.3198C72.1638 72.1915 72.4301 72.1509 72.6851 72.2056C72.9401 72.2603 73.1663 72.4066 73.3208 72.6168C73.4752 72.827 73.5473 73.0865 73.5235 73.3462C73.4996 73.606 73.3813 73.848 73.1911 74.0264L69.846 77.0878L71.5996 76.0766C71.8434 75.949 72.127 75.9206 72.3912 75.9973C72.6555 76.0739 72.8799 76.2497 73.0175 76.4879C73.1552 76.7261 73.1955 77.0083 73.1301 77.2755C73.0646 77.5427 72.8985 77.7743 72.6663 77.9219L62.4796 83.8014C62.3181 83.8967 62.1339 83.9468 61.9463 83.9464Z" fill="#D7AA91"/>
<path id="Vector_3" d="M42.0542 41.5998C41.8254 41.5996 41.6026 41.5258 41.4189 41.3894C41.2352 41.2529 41.1003 41.0609 41.034 40.8419C40.9678 40.6228 40.9738 40.3883 41.0511 40.1729C41.1283 39.9575 41.2729 39.7726 41.4633 39.6457L55.5902 30.227L38.9971 39.8057C38.759 39.9423 38.4774 39.9819 38.2109 39.9162C37.9443 39.8504 37.7134 39.6845 37.5661 39.4528C37.4188 39.2212 37.3665 38.9416 37.4201 38.6724C37.4736 38.4031 37.6289 38.1649 37.8537 38.0073L57.7747 24.0723L39.0014 34.9139C38.7624 35.0526 38.4789 35.0932 38.2106 35.027C37.9423 34.9608 37.7101 34.7931 37.563 34.5592C37.4159 34.3253 37.3653 34.0434 37.4219 33.7729C37.4786 33.5024 37.6379 33.2644 37.8665 33.1091L57.0942 19.9763L39.0014 30.4297C38.7608 30.5737 38.4731 30.6173 38.2006 30.5508C37.9282 30.4844 37.6928 30.3133 37.5456 30.0746C37.3983 29.8359 37.351 29.5488 37.4139 29.2755C37.4767 29.0021 37.6447 28.7646 37.8814 28.6142L48.5481 21.5913L38.9971 27.0931C38.7585 27.2295 38.4764 27.2686 38.2097 27.202C37.943 27.1355 37.7123 26.9686 37.5656 26.7361C37.419 26.5036 37.3677 26.2235 37.4226 25.9542C37.4775 25.6848 37.6342 25.4471 37.8601 25.2904L50.2739 16.7571L39.0398 23.2531C38.8026 23.3884 38.5225 23.4276 38.2572 23.3626C37.9919 23.2975 37.7617 23.1332 37.614 22.9034C37.4663 22.6737 37.4124 22.396 37.4633 22.1277C37.5143 21.8593 37.6662 21.6208 37.8878 21.4611L48.0489 14.2078L39.6798 19.0334C39.4429 19.1673 39.1638 19.2056 38.8995 19.1404C38.6353 19.0752 38.406 18.9115 38.2585 18.6828C38.1111 18.4541 38.0566 18.1777 38.1062 17.9101C38.1559 17.6425 38.306 17.4041 38.5257 17.2435L43.1507 13.9305L41.1497 15.0846C40.9194 15.2176 40.6477 15.2598 40.3879 15.2029C40.1281 15.1459 39.8989 14.994 39.7453 14.7768C39.5917 14.5597 39.5248 14.293 39.5577 14.0291C39.5906 13.7652 39.7209 13.523 39.923 13.3502L45.1049 8.91072C44.8909 8.87039 44.6945 8.76557 44.5419 8.61033C44.3892 8.4551 44.2878 8.25688 44.2511 8.0423C44.2144 7.82771 44.2442 7.60704 44.3366 7.40991C44.429 7.21278 44.5794 7.04864 44.7678 6.93952L52.9321 2.22485C53.1624 2.08953 53.4352 2.04558 53.6964 2.10171C53.9576 2.15783 54.1883 2.30993 54.3427 2.52793C54.4972 2.74593 54.5642 3.01396 54.5305 3.279C54.4968 3.54404 54.3649 3.78679 54.1609 3.95925L50.0478 7.48565L60.7998 1.27978C61.0367 1.14589 61.3159 1.10761 61.5801 1.17279C61.8443 1.23796 62.0736 1.40165 62.2211 1.63036C62.3686 1.85907 62.423 2.1355 62.3734 2.40306C62.3237 2.67063 62.1737 2.90909 61.9539 3.06965L57.3374 6.38058L66.1822 1.27978C66.4195 1.14445 66.6996 1.10528 66.9648 1.17035C67.2301 1.23541 67.4603 1.39975 67.608 1.6295C67.7557 1.85924 67.8096 2.13689 67.7587 2.40523C67.7078 2.67356 67.5558 2.91214 67.3342 3.07178L57.1795 10.3251L72.8361 1.27978C73.0747 1.14337 73.3568 1.10435 73.6235 1.17086C73.8902 1.23736 74.121 1.40427 74.2676 1.63676C74.4143 1.86925 74.4655 2.14938 74.4106 2.41873C74.3558 2.68807 74.1991 2.92584 73.9731 3.08245L61.555 11.6158L78.8649 1.60832C79.1055 1.46422 79.3932 1.42069 79.6657 1.48715C79.9381 1.5536 80.1735 1.7247 80.3207 1.96339C80.468 2.20208 80.5153 2.48917 80.4524 2.76249C80.3896 3.03582 80.2216 3.27339 79.9849 3.42378L69.3182 10.451L80.4478 4.02325C80.6868 3.88454 80.9703 3.844 81.2386 3.91017C81.5069 3.97634 81.7391 4.14405 81.8862 4.37798C82.0333 4.61191 82.0839 4.89381 82.0273 5.16429C81.9707 5.43477 81.8113 5.67273 81.5827 5.82805L62.3593 18.9566L77.9859 9.93472C78.2241 9.79807 78.5057 9.75849 78.7722 9.82421C79.0388 9.88992 79.2697 10.0559 79.417 10.2875C79.5643 10.5192 79.6166 10.7987 79.563 11.068C79.5095 11.3372 79.3542 11.5755 79.1294 11.7331L59.2083 25.668L83.155 11.8419C83.395 11.6994 83.6813 11.6566 83.9525 11.7227C84.2237 11.7888 84.4581 11.9586 84.6056 12.1957C84.753 12.4327 84.8016 12.7181 84.741 12.9906C84.6804 13.263 84.5154 13.5009 84.2814 13.6531L70.1523 23.0739L85.7598 14.067C86.0001 13.9304 86.2841 13.8924 86.5519 13.961C86.8197 14.0297 87.0503 14.1996 87.1953 14.435C87.3402 14.6704 87.3881 14.9529 87.3289 15.2229C87.2696 15.4929 87.1079 15.7294 86.8777 15.8825L79.7161 20.5758L87.2958 16.1918C87.5345 16.0554 87.8165 16.0163 88.0833 16.0829C88.35 16.1494 88.5807 16.3163 88.7274 16.5488C88.874 16.7813 88.9252 17.0614 88.8704 17.3307C88.8155 17.6001 88.6588 17.8378 88.4329 17.9945L76.7998 25.9902L88.5459 19.1998C88.7829 19.0659 89.062 19.0276 89.3262 19.0928C89.5904 19.158 89.8197 19.3217 89.9672 19.5504C90.1147 19.7791 90.1692 20.0555 90.1195 20.3231C90.0699 20.5906 89.9198 20.8291 89.7001 20.9896L78.835 28.7998L89.0046 22.9289C89.2389 22.7943 89.5156 22.7538 89.7787 22.8153C90.0418 22.8769 90.2717 23.036 90.422 23.2605C90.5723 23.4851 90.6318 23.7583 90.5885 24.025C90.5452 24.2917 90.4023 24.532 90.1886 24.6974L81.2542 31.5731L89.0217 27.0931C89.2571 26.9573 89.5355 26.9164 89.8 26.9789C90.0645 27.0413 90.2952 27.2024 90.445 27.4292C90.5948 27.6561 90.6523 27.9315 90.6058 28.1993C90.5594 28.4671 90.4124 28.7071 90.195 28.8702L87.6542 30.7902L89.0302 29.9945C89.2575 29.8605 89.5263 29.8155 89.7847 29.8682C90.0432 29.9209 90.273 30.0674 90.4297 30.2796C90.5865 30.4918 90.659 30.7545 90.6334 31.017C90.6078 31.2795 90.4858 31.5233 90.291 31.7011L86.8777 34.9011L89.0537 33.6467C89.2498 33.5365 89.4757 33.4912 89.6991 33.5171C89.9226 33.5431 90.1321 33.639 90.2977 33.7911C90.4634 33.9433 90.5767 34.1439 90.6215 34.3643C90.6662 34.5848 90.6402 34.8137 90.547 35.0185L89.2116 37.8942C89.463 37.7933 89.7433 37.7919 89.9957 37.8902C90.2481 37.9885 90.4537 38.1792 90.5707 38.4235C90.6877 38.6678 90.7073 38.9474 90.6257 39.2057C90.544 39.464 90.3672 39.6815 90.131 39.8142L87.3577 41.4121C87.1614 41.5227 86.9351 41.5683 86.7113 41.5424C86.4874 41.5165 86.2776 41.4204 86.1117 41.2678C85.9459 41.1153 85.8326 40.9141 85.7882 40.6932C85.7438 40.4723 85.7704 40.243 85.8643 40.0382L87.1891 37.1817L79.8505 41.4206C79.6232 41.5545 79.3544 41.5995 79.096 41.5468C78.8375 41.4942 78.6077 41.3476 78.451 41.1354C78.2942 40.9233 78.2217 40.6606 78.2473 40.398C78.2729 40.1355 78.3949 39.8918 78.5897 39.7139L82.003 36.5139L73.4995 41.4206C73.2644 41.5553 72.9869 41.5955 72.7232 41.533C72.4596 41.4705 72.2296 41.3099 72.0799 41.084C71.9303 40.8581 71.8723 40.5837 71.9177 40.3166C71.963 40.0494 72.1083 39.8096 72.3241 39.6457L74.867 37.7257L68.467 41.4185C68.2326 41.556 67.9545 41.5988 67.6896 41.5383C67.4246 41.4777 67.1928 41.3183 67.0414 41.0926C66.89 40.8669 66.8305 40.5919 66.875 40.3237C66.9195 40.0556 67.0647 39.8146 67.2809 39.6499L76.2196 32.7571L61.2137 41.4291C60.9768 41.563 60.6976 41.6013 60.4334 41.5361C60.1692 41.4709 59.9399 41.3073 59.7924 41.0785C59.6449 40.8498 59.5905 40.5734 59.6401 40.3058C59.6898 40.0383 59.8398 39.7998 60.0595 39.6393L70.9161 31.8483L54.3081 41.4377C54.0694 41.5741 53.7873 41.6131 53.5206 41.5466C53.2539 41.4801 53.0232 41.3132 52.8765 41.0807C52.7299 40.8482 52.6787 40.5681 52.7335 40.2987C52.7884 40.0294 52.9451 39.7916 53.171 39.635L64.819 31.6329L47.8206 41.4462C47.5799 41.5862 47.2939 41.6265 47.0238 41.5585C46.7538 41.4904 46.521 41.3195 46.3753 41.0821C46.2296 40.8448 46.1826 40.5599 46.2441 40.2882C46.3057 40.0166 46.4711 39.7799 46.7049 39.6286L53.8558 34.9352L42.5875 41.4419C42.4271 41.5414 42.2429 41.5959 42.0542 41.5998Z" fill="#77493A"/>
<path id="Vector_4" d="M63.4115 67.1103C63.1865 67.113 62.9664 67.0446 62.7827 66.9147C62.599 66.7848 62.4611 66.6001 62.3887 66.3871C62.3162 66.1741 62.313 65.9436 62.3795 65.7287C62.4459 65.5137 62.5787 65.3253 62.7587 65.1903L69.3187 60.1322L58.9293 66.1333C58.6932 66.2665 58.4152 66.3048 58.1519 66.2405C57.8885 66.1762 57.6596 66.0139 57.5115 65.7868C57.3634 65.5597 57.3074 65.2848 57.3548 65.0178C57.4022 64.7509 57.5495 64.512 57.7667 64.3498L72.4504 53.6234L54.3832 64.0532C54.1458 64.1926 53.8638 64.2347 53.596 64.1709C53.3283 64.1071 53.0956 63.9423 52.9465 63.7109C52.7975 63.4795 52.7437 63.1994 52.7963 62.9293C52.849 62.6591 53.004 62.4197 53.2291 62.2612L70.4152 49.9946L50.9059 61.2565C50.667 61.3908 50.3857 61.428 50.1201 61.3605C49.8546 61.293 49.6252 61.1258 49.4796 60.8938C49.3339 60.6617 49.2831 60.3825 49.3378 60.114C49.3924 59.8455 49.5483 59.6083 49.7731 59.4516L62.7203 50.6367L48.7811 58.6858C48.543 58.8224 48.2613 58.862 47.9948 58.7963C47.7282 58.7306 47.4973 58.5646 47.35 58.333C47.2027 58.1013 47.1504 57.8218 47.204 57.5525C47.2575 57.2833 47.4128 57.045 47.6376 56.8874L62.2979 46.6474L46.9955 55.4815C46.7557 55.6179 46.4725 55.6561 46.2052 55.5881C45.9379 55.5201 45.7073 55.3512 45.5618 55.1169C45.4163 54.8826 45.3673 54.601 45.425 54.3313C45.4827 54.0615 45.6426 53.8247 45.8712 53.6703L54.1272 48.1663L46.0632 52.8212C45.823 52.9605 45.5381 53.0006 45.2688 52.9331C44.9995 52.8656 44.7672 52.6958 44.6211 52.4598C44.475 52.2237 44.4268 51.94 44.4865 51.6689C44.5462 51.3978 44.7093 51.1607 44.9411 51.0079L50.3725 47.4196L45.5619 50.193C45.3226 50.3391 45.0355 50.3851 44.7626 50.3212C44.4896 50.2572 44.2529 50.0884 44.1034 49.8512C43.954 49.6141 43.904 49.3276 43.9641 49.0538C44.0242 48.78 44.1897 48.5409 44.4248 48.3882L53.3336 42.3039L44.0131 47.6863C43.7738 47.8324 43.4867 47.8785 43.2138 47.8145C42.9408 47.7506 42.7041 47.5817 42.5546 47.3446C42.4052 47.1074 42.3552 46.8209 42.4153 46.5471C42.4754 46.2733 42.6409 46.0342 42.876 45.8815L50.0803 40.9258L41.0669 46.1332C40.8294 46.2702 40.5481 46.3105 40.2817 46.2456C40.0152 46.1807 39.784 46.0156 39.636 45.7848C39.4881 45.5539 39.4347 45.2749 39.487 45.0057C39.5394 44.7365 39.6934 44.4978 39.9171 44.3391L49.5512 37.5124L39.3112 43.4218C39.075 43.5582 38.7954 43.599 38.5301 43.5357C38.2647 43.4724 38.0337 43.3098 37.8845 43.0814C37.7354 42.853 37.6794 42.5762 37.7281 42.3077C37.7768 42.0393 37.9265 41.7997 38.1464 41.6383L48.9816 33.6959L39.4115 39.2212C39.1843 39.3495 38.9181 39.3901 38.6631 39.3354C38.408 39.2807 38.1819 39.1344 38.0274 38.9242C37.8729 38.714 37.8008 38.4545 37.8247 38.1948C37.8486 37.935 37.9668 37.693 38.1571 37.5146L45.5384 30.7434C45.4638 30.674 45.4004 30.5934 45.3507 30.5044C45.209 30.2597 45.1704 29.9688 45.2432 29.6955C45.316 29.4223 45.4943 29.1892 45.7389 29.0474L50.2893 26.4191C50.5164 26.2908 50.7827 26.2502 51.0377 26.305C51.2928 26.3597 51.5189 26.506 51.6734 26.7162C51.8279 26.9263 51.9 27.1858 51.8761 27.4456C51.8522 27.7053 51.734 27.9473 51.5437 28.1258L46.7629 32.5119L64.8536 22.0586C65.0898 21.9221 65.3693 21.8813 65.6347 21.9446C65.9001 22.0079 66.1311 22.1705 66.2802 22.3989C66.4294 22.6273 66.4854 22.9042 66.4367 23.1726C66.388 23.4411 66.2383 23.6806 66.0184 23.842L55.1875 31.7866L68.3267 24.2004C68.5642 24.0635 68.8454 24.0232 69.1119 24.0881C69.3783 24.153 69.6096 24.318 69.7575 24.5489C69.9055 24.7798 69.9589 25.0588 69.9066 25.328C69.8542 25.5972 69.7002 25.8359 69.4765 25.9946L59.8424 32.8212L72.3949 25.5679C72.6336 25.4315 72.9157 25.3925 73.1824 25.459C73.4491 25.5255 73.6798 25.6924 73.8265 25.9249C73.9731 26.1574 74.0243 26.4375 73.9695 26.7069C73.9146 26.9762 73.7579 27.214 73.532 27.3706L66.3213 32.3306L76.6061 26.3935C76.8451 26.2548 77.1286 26.2143 77.3969 26.2804C77.6652 26.3466 77.8974 26.5143 78.0445 26.7482C78.1916 26.9822 78.2422 27.2641 78.1856 27.5346C78.129 27.805 77.9696 28.043 77.7411 28.1983L68.8195 34.2954L80.0237 27.8271C80.2636 27.6929 80.5461 27.6565 80.8122 27.7255C81.0783 27.7946 81.3075 27.9636 81.4519 28.1975C81.5964 28.4314 81.645 28.712 81.5876 28.9809C81.5301 29.2497 81.3711 29.486 81.1437 29.6404L75.7187 33.2244L81.692 29.777C81.9317 29.6406 82.215 29.6024 82.4823 29.6704C82.7496 29.7384 82.9802 29.9073 83.1256 30.1416C83.2711 30.3759 83.3201 30.6575 83.2625 30.9272C83.2048 31.197 83.0448 31.4338 82.8163 31.5882L74.5688 37.0986L82.7245 32.3903C82.9626 32.2537 83.2442 32.2141 83.5108 32.2798C83.7773 32.3455 84.0083 32.5115 84.1556 32.7431C84.3029 32.9748 84.3552 33.2543 84.3016 33.5236C84.2481 33.7928 84.0927 34.0311 83.868 34.1887L69.2077 44.4287L86.4003 34.4916C86.6397 34.3498 86.925 34.3071 87.1954 34.3727C87.4658 34.4383 87.6999 34.607 87.8477 34.8428C87.9955 35.0785 88.0453 35.3627 87.9866 35.6347C87.9278 35.9067 87.765 36.1449 87.5331 36.2986L74.5837 45.1242L88.4803 37.1007C88.7176 36.9614 88.9997 36.9192 89.2674 36.9831C89.5352 37.0469 89.7679 37.2117 89.9169 37.4431C90.066 37.6745 90.1198 37.9546 90.0671 38.2247C90.0145 38.4949 89.8594 38.7342 89.6344 38.8927L72.4483 51.1615L88.5763 41.8495C88.8128 41.7115 89.0933 41.6698 89.3598 41.733C89.6262 41.7961 89.8582 41.9593 90.0076 42.1888C90.157 42.4183 90.2125 42.6965 90.1625 42.9657C90.1124 43.2349 89.9608 43.4746 89.7389 43.6351L75.0552 54.3615L82.0952 50.2954C82.3296 50.1579 82.6077 50.115 82.8726 50.1756C83.1376 50.2361 83.3694 50.3955 83.5208 50.6213C83.6722 50.847 83.7317 51.122 83.6872 51.3901C83.6427 51.6582 83.4975 51.8992 83.2813 52.0639L76.7235 57.1199L80.316 55.0442C80.5483 54.9085 80.8234 54.8656 81.086 54.9241C81.3487 54.9826 81.5795 55.1383 81.7322 55.3598C81.8849 55.5813 81.9483 55.8524 81.9096 56.1187C81.8709 56.385 81.7329 56.6268 81.5235 56.7956L77.7005 59.9082C77.8508 60.0002 77.9756 60.1286 78.0632 60.2815C78.2046 60.5265 78.243 60.8177 78.1698 61.0909C78.0965 61.3642 77.9178 61.5971 77.6728 61.7386L69.9736 66.1887C69.7416 66.3212 69.4683 66.3618 69.2078 66.3025C68.9473 66.2432 68.7185 66.0883 68.5667 65.8684C68.4149 65.6485 68.3512 65.3797 68.3881 65.1151C68.4251 64.8504 68.56 64.6093 68.7661 64.4394L69.8477 63.5562L63.9427 66.9695C63.7813 67.0629 63.5979 67.1115 63.4115 67.1103Z" fill="#E7BDA0"/>
<path id="Vector_5" d="M40.1854 126.582H41.3865C55.2147 126.603 69.1987 126.567 83.0697 126.582C89.6638 126.436 100.712 128.538 101.788 119.401C103.089 97.2717 102.071 74.6476 74.0734 73.9607C74.0883 70.6668 74.0734 67.373 74.0734 64.0813C76.7941 62.6413 79.1485 60.5969 80.9558 58.105C82.7631 55.6132 83.9752 52.7402 84.499 49.7069C84.8318 47.6162 85.6915 47.3026 87.347 46.3597C88.3699 45.7915 89.2402 44.9843 89.8837 44.007C90.5271 43.0296 90.9244 41.9111 91.0419 40.7469C91.1038 29.7495 94.1544 12.0642 79.3811 9.81352C83.4579 7.07006 84.0745 1.55539 78.3145 1.12446C73.1006 0.900458 67.8291 1.12446 62.6089 1.12446C49.1155 0.104725 36.3177 10.5559 36.8446 24.5335C37.555 31.2237 35.1379 38.9634 38.3081 45.0434C39.3747 46.6903 41.4185 46.9229 42.8777 47.9405C44.0446 54.6562 47.3577 61.6365 53.9134 64.5591C53.9134 67.7207 53.9134 70.883 53.9134 74.0461C36.2451 74.2381 24.5651 88.6316 26.1801 105.901C26.6003 118.547 22.5833 128.674 40.1854 126.582ZM42.6665 13.0007C48.7123 1.46366 62.3401 3.00819 73.3865 3.13832C81.3395 2.17832 80.7977 6.19112 75.5347 10.3085C74.8947 10.9378 75.4409 11.6717 76.2345 11.6717C89.0131 12.0727 88.4307 25.1586 88.0467 34.6327C86.835 33.6045 85.2457 33.8669 84.5801 32.1965C83.5753 28.1431 79.9145 26.5453 76.0702 26.2231C72.7637 25.5373 69.6207 24.2197 66.8137 22.3426C63.8483 20.3885 61.1369 23.1042 58.6793 24.5634C56.9202 25.352 55.0699 25.9189 53.171 26.2509C49.8174 26.7437 46.1139 27.5309 44.3049 30.7309C43.97 31.7672 43.4049 32.7144 42.652 33.5013C41.899 34.2883 40.9777 34.8946 39.9571 35.2749C40.2345 27.7335 38.8137 19.9085 42.6665 13.0007ZM49.1561 56.5037C48.0927 54.767 47.3141 52.8714 46.8499 50.8887C46.3273 48.6551 46.6473 47.1831 44.4393 46.061C42.1267 44.8877 40.307 43.7271 39.9934 40.8557C39.831 39.4384 40.1969 38.0111 41.0211 36.8468C41.8453 35.6825 43.07 34.8631 44.4606 34.5453C46.1395 33.7517 46.2505 32.6018 46.9438 31.0445C48.3603 27.8701 51.6563 27.8957 54.5897 27.2045C57.7204 26.5704 60.687 25.2981 63.3043 23.4669C63.6784 22.898 63.8697 22.8197 63.8782 23.2322C67.9315 27.9063 75.2681 26.2871 79.7993 29.8669C81.4547 31.5885 81.1539 33.9501 83.4494 34.9677C84.4615 35.2526 85.3843 35.7908 86.1306 36.5314C86.8769 37.272 87.4222 38.1906 87.7149 39.2005C88.0076 40.2104 88.0381 41.2782 87.8036 42.3031C87.569 43.3281 87.077 44.2763 86.3742 45.0583C85.4151 45.7253 84.3749 46.2673 83.2787 46.6711C81.3481 47.7634 81.619 49.6151 81.1689 51.5437C80.624 53.9446 79.6 56.2108 78.1583 58.2064C76.7165 60.2021 74.8867 61.8861 72.7785 63.1575C72.4439 63.1526 72.1133 63.23 71.8157 63.3829C71.5181 63.5358 71.2626 63.7595 71.0718 64.0343C67.1156 65.558 62.7489 65.6382 58.7394 64.2608C54.73 62.8835 51.3344 60.1368 49.1497 56.5037H49.1561ZM70.9865 65.4786C70.6153 70.093 72.0723 75.2002 69.6126 79.3773C69.0627 80.1643 68.3465 80.8209 67.5147 81.3004C66.6829 81.7799 65.7558 82.0707 64.7991 82.1521C63.8424 82.2335 62.8795 82.1036 61.9787 81.7716C61.0778 81.4395 60.2609 80.9134 59.5859 80.2306C55.6137 76.5314 57.4142 70.6306 57.0259 65.8071C61.5895 67.216 66.4878 67.1007 70.9801 65.4786H70.9865ZM30.483 92.2007C32.0176 87.2164 35.1455 82.8734 39.3865 79.8382C43.6276 76.803 48.7474 75.2433 53.9603 75.3986C54.387 87.0722 72.9641 86.637 73.9774 75.4882C91.0441 75.966 100.441 90.8482 98.7241 106.942C98.7241 110.222 98.7241 113.502 98.7241 116.783C98.7241 119.465 99.0505 122.806 96.4457 124.512C93.4889 125.878 90.0457 124.854 86.8798 125.152V104.12C86.8798 103.642 83.7907 104.071 83.7907 104.947V125.152C70.5982 125.176 57.4057 125.107 44.2131 125.182V104.12C44.2131 103.29 41.1241 103.83 41.1241 104.947V125.214C31.1187 126.052 28.6825 123.332 29.2819 113.6C29.2777 106.71 28.3518 98.8482 30.483 92.2007Z" fill="#262626"/>
<g id="Group 794">
<path id="Vector_6" d="M94.3624 128C94.2471 128 94.1348 127.963 94.0419 127.895C93.949 127.826 93.8803 127.73 93.8457 127.62C93.8111 127.51 93.8125 127.391 93.8497 127.282C93.8869 127.173 93.9579 127.078 94.0525 127.012L101.561 121.773L91.3553 127.678C91.2331 127.751 91.087 127.773 90.9486 127.739C90.8102 127.705 90.6906 127.618 90.6159 127.497C90.5411 127.375 90.517 127.229 90.5489 127.09C90.5809 126.951 90.6662 126.83 90.7864 126.754L97.2784 122.475L89.135 127.185C89.012 127.259 88.8645 127.282 88.7249 127.247C88.5852 127.213 88.465 127.124 88.3906 127.001C88.3161 126.878 88.2936 126.73 88.3279 126.59C88.3623 126.45 88.4507 126.33 88.5737 126.255L90.483 125.046L87.6418 126.69C87.5189 126.764 87.3715 126.787 87.2319 126.753C87.0922 126.719 86.9719 126.63 86.8973 126.507C86.8228 126.384 86.8 126.236 86.8342 126.096C86.8683 125.957 86.9565 125.836 87.0794 125.761L91.7758 122.771L86.1215 126.042C85.9987 126.111 85.854 126.13 85.718 126.094C85.5819 126.058 85.4653 125.97 85.3926 125.849C85.32 125.728 85.2971 125.584 85.3287 125.447C85.3604 125.309 85.4442 125.19 85.5623 125.113L88.2443 123.428L84.8601 125.382C84.7369 125.457 84.5892 125.479 84.4497 125.444C84.3102 125.409 84.1902 125.32 84.1162 125.196C84.0422 125.073 84.0202 124.925 84.0551 124.785C84.0899 124.645 84.1788 124.525 84.3021 124.451L85.6523 123.609L83.7624 124.703C83.6396 124.777 83.4921 124.8 83.3525 124.766C83.2129 124.732 83.0926 124.643 83.018 124.52C82.9434 124.397 82.9207 124.249 82.9548 124.11C82.989 123.97 83.0772 123.849 83.2 123.774L91.9448 118.2L82.4025 123.719C82.28 123.787 82.1361 123.804 82.001 123.768C81.866 123.731 81.7501 123.644 81.6778 123.524C81.6054 123.404 81.5821 123.261 81.6128 123.124C81.6434 122.988 81.7257 122.868 81.8423 122.791L89.1177 118.198L81.2647 122.741C81.1422 122.808 80.9983 122.826 80.8632 122.789C80.7282 122.753 80.6123 122.666 80.54 122.546C80.4676 122.426 80.4443 122.283 80.475 122.146C80.5057 122.009 80.5879 121.89 80.7045 121.813L89.7494 116.089L80.1616 121.632C80.1007 121.669 80.0332 121.694 79.9629 121.705C79.8926 121.716 79.8208 121.713 79.7517 121.696C79.6825 121.679 79.6174 121.648 79.56 121.606C79.5026 121.564 79.4541 121.511 79.4171 121.45C79.3802 121.389 79.3556 121.321 79.3448 121.251C79.334 121.18 79.3371 121.109 79.354 121.039C79.3709 120.97 79.4012 120.905 79.4433 120.847C79.4854 120.79 79.5384 120.741 79.5992 120.704L90.5697 113.714L79.0834 120.362C78.9604 120.437 78.8129 120.459 78.6734 120.424C78.5339 120.39 78.4138 120.301 78.3395 120.178C78.2652 120.055 78.2428 119.907 78.2773 119.767C78.3117 119.628 78.4002 119.507 78.5232 119.433L87.5909 113.707L78.2046 119.135C78.0819 119.206 77.9367 119.225 77.7999 119.189C77.6631 119.154 77.5456 119.066 77.4723 118.945C77.3991 118.824 77.376 118.679 77.4079 118.541C77.4399 118.403 77.5243 118.283 77.6433 118.207L88.9324 111.021L77.3583 117.714C77.236 117.781 77.0926 117.799 76.9577 117.763C76.8229 117.727 76.7072 117.64 76.6345 117.521C76.5619 117.402 76.5381 117.259 76.5679 117.122C76.5978 116.986 76.679 116.866 76.7948 116.788L89.8795 108.387L76.5607 116.086C76.4376 116.155 76.2923 116.174 76.1558 116.137C76.0193 116.101 75.9023 116.013 75.8298 115.891C75.7573 115.77 75.735 115.625 75.7677 115.487C75.8004 115.349 75.8855 115.23 76.0048 115.154L77.2434 114.389L76.1414 115.026C76.019 115.096 75.8743 115.115 75.738 115.08C75.6016 115.045 75.4843 114.957 75.411 114.837C75.3376 114.717 75.3138 114.572 75.3448 114.435C75.3757 114.297 75.459 114.177 75.5768 114.1L88.6485 105.673L75.5941 113.219C75.471 113.294 75.3234 113.316 75.1839 113.281C75.0444 113.246 74.9244 113.158 74.8502 113.034C74.7761 112.911 74.7539 112.763 74.7885 112.623C74.8232 112.483 74.9118 112.363 75.035 112.289L81.3676 108.309L75.2886 111.825C75.1664 111.894 75.0226 111.912 74.8872 111.877C74.7518 111.841 74.6354 111.755 74.5623 111.635C74.4892 111.515 74.4651 111.372 74.495 111.235C74.525 111.098 74.6066 110.978 74.7229 110.9L86.5116 103.276L75.0534 109.907C74.9927 109.944 74.9252 109.969 74.8549 109.98C74.7845 109.991 74.7127 109.988 74.6436 109.971C74.5038 109.937 74.3833 109.849 74.3084 109.726C74.2336 109.603 74.2105 109.455 74.2443 109.315C74.2782 109.175 74.3661 109.055 74.4889 108.98L83.8979 102.929L75.0003 108.075C74.8779 108.141 74.735 108.157 74.6012 108.12C74.4674 108.083 74.3528 107.996 74.2811 107.877C74.2093 107.758 74.186 107.616 74.2158 107.48C74.2455 107.344 74.3262 107.225 74.4412 107.147L77.5761 105.171L75.0838 106.615C74.961 106.684 74.8163 106.702 74.6803 106.666C74.5442 106.63 74.4275 106.542 74.3549 106.422C74.2822 106.301 74.2593 106.157 74.291 106.019C74.3227 105.882 74.4065 105.762 74.5246 105.686L77.0711 104.072L75.268 105.116C75.2071 105.153 75.1395 105.177 75.0691 105.188C74.9988 105.199 74.927 105.195 74.8578 105.178C74.7182 105.144 74.598 105.055 74.5235 104.932C74.4491 104.809 74.4266 104.661 74.4609 104.521C74.4953 104.381 74.5837 104.261 74.7067 104.186L76.2963 103.18L75.6017 103.583C75.5408 103.62 75.4733 103.644 75.4029 103.655C75.3325 103.666 75.2607 103.662 75.1916 103.645C75.1224 103.628 75.0573 103.598 75 103.556C74.9426 103.513 74.8941 103.46 74.8573 103.399C74.8204 103.338 74.7959 103.27 74.7852 103.2C74.7744 103.129 74.7777 103.057 74.7947 102.988C74.8117 102.919 74.8421 102.854 74.8843 102.796C74.9265 102.739 74.9795 102.69 75.0404 102.653L75.8835 102.119C75.7759 102.137 75.6655 102.122 75.566 102.078C75.4666 102.033 75.3825 101.96 75.3243 101.867C75.2507 101.746 75.2273 101.601 75.2591 101.463C75.2908 101.325 75.3753 101.204 75.4944 101.128L76.5076 100.476C76.4071 100.487 76.3056 100.47 76.2143 100.427C76.1229 100.383 76.0452 100.316 75.9897 100.231C75.9144 100.114 75.887 99.9724 75.913 99.8356C75.939 99.6988 76.0165 99.5773 76.1294 99.4961L83.031 94.5442L78.6174 97.0956C78.4984 97.1641 78.3579 97.1847 78.2242 97.1534C78.0906 97.1221 77.9738 97.0411 77.8975 96.9268C77.8211 96.8126 77.7909 96.6735 77.8129 96.5378C77.8349 96.4021 77.9075 96.2798 78.016 96.1956L81.6808 93.3804C81.5848 93.3445 81.5008 93.2821 81.4388 93.2003C81.3767 93.1186 81.3391 93.0209 81.3303 92.9186C81.3214 92.8163 81.3417 92.7135 81.3888 92.6223C81.4359 92.5311 81.5078 92.4551 81.5963 92.4032L87.1303 89.2015C87.2495 89.1309 87.3912 89.1087 87.5263 89.1395C87.6613 89.1703 87.7795 89.2517 87.8564 89.3671C87.9334 89.4824 87.9634 89.6229 87.9402 89.7597C87.917 89.8965 87.8424 90.0192 87.7317 90.1026L85.2546 92.0048L92.064 88.067C92.1841 88.0009 92.3248 87.9829 92.4576 88.0166C92.5904 88.0502 92.7056 88.1331 92.7799 88.2484C92.8542 88.3638 92.8822 88.503 92.8581 88.6382C92.8341 88.7733 92.7598 88.8943 92.6503 88.9768L85.7465 93.933L95.874 88.0702C95.9965 88.0016 96.1407 87.9833 96.2764 88.0191C96.412 88.0549 96.5285 88.142 96.6014 88.2621C96.6742 88.3823 96.6978 88.526 96.667 88.6631C96.6362 88.8003 96.5536 88.9201 96.4364 88.9974L96.2544 89.1136L97.6176 88.3264C97.7402 88.2562 97.8855 88.2368 98.0222 88.2723C98.159 88.3078 98.2766 88.3954 98.3498 88.5165C98.423 88.6376 98.4461 88.7825 98.4142 88.9204C98.3823 89.0583 98.2978 89.1783 98.1789 89.2547L97.9914 89.3741L99.1682 88.6934C99.2907 88.6259 99.4346 88.6085 99.5697 88.6448C99.7047 88.6811 99.8206 88.7683 99.8929 88.8882C99.9653 89.0081 99.9886 89.1514 99.9579 89.2881C99.9273 89.4248 99.845 89.5443 99.7284 89.6217L98.1312 90.6336L100.654 89.1744C100.776 89.1088 100.919 89.0928 101.053 89.1297C101.187 89.1666 101.301 89.2536 101.373 89.3726C101.445 89.4917 101.468 89.6338 101.438 89.7697C101.409 89.9055 101.328 90.0247 101.213 90.1026L98.6654 91.7127L102.046 89.7585C102.169 89.6896 102.314 89.6712 102.45 89.7073C102.586 89.7434 102.703 89.8311 102.775 89.9518C102.848 90.0726 102.871 90.2169 102.839 90.3543C102.807 90.4916 102.724 90.6113 102.605 90.6878L99.4716 92.666L103.352 90.4229C103.474 90.3531 103.619 90.3338 103.755 90.3691C103.892 90.4043 104.009 90.4913 104.082 90.6117C104.156 90.7321 104.18 90.8764 104.149 91.0141C104.118 91.1517 104.034 91.2718 103.917 91.349L94.5054 97.3985L104.899 91.387C105.022 91.3172 105.167 91.2979 105.303 91.3332C105.439 91.3684 105.556 91.4554 105.63 91.5758C105.703 91.6962 105.727 91.8405 105.696 91.9781C105.665 92.1158 105.582 92.2359 105.464 92.3131L93.6819 99.9315L106.437 92.5563C106.56 92.482 106.708 92.4598 106.847 92.4945C106.987 92.5292 107.107 92.618 107.181 92.7414C107.255 92.8648 107.277 93.0127 107.243 93.1524C107.208 93.2922 107.119 93.4125 106.996 93.4868L100.651 97.4724L107.49 93.5128C107.613 93.443 107.757 93.4237 107.894 93.459C108.03 93.4942 108.147 93.5812 108.221 93.7016C108.294 93.822 108.318 93.9663 108.287 94.1039C108.256 94.2416 108.173 94.3617 108.055 94.4389L94.9811 102.874L108.773 94.8971C108.896 94.8276 109.042 94.809 109.178 94.8454C109.315 94.8817 109.432 94.97 109.504 95.0915C109.577 95.213 109.599 95.358 109.566 95.4957C109.534 95.6334 109.449 95.7529 109.329 95.8286L108.092 96.5886L109.485 95.783C109.608 95.7157 109.751 95.6981 109.886 95.7341C110.021 95.7701 110.136 95.8568 110.209 95.9761C110.282 96.0955 110.306 96.2383 110.276 96.3748C110.246 96.5114 110.165 96.6311 110.049 96.7091L96.9685 105.118L110.505 97.2878C110.627 97.2214 110.77 97.2046 110.905 97.2411C111.039 97.2775 111.154 97.3643 111.226 97.4835C111.299 97.6027 111.322 97.7452 111.292 97.8813C111.263 98.0175 111.182 98.137 111.066 98.215L99.7826 105.398L111.313 98.7242C111.436 98.6586 111.579 98.6426 111.712 98.6795C111.846 98.7164 111.961 98.8034 112.033 98.9224C112.104 99.0415 112.128 99.1836 112.098 99.3194C112.068 99.4553 111.987 99.5745 111.873 99.6524L102.81 105.379L111.939 100.1C112.061 100.031 112.205 100.013 112.341 100.049C112.477 100.084 112.593 100.172 112.666 100.292C112.739 100.412 112.762 100.556 112.732 100.693C112.701 100.83 112.618 100.95 112.501 101.027L101.516 108.025L112.505 101.671C112.628 101.6 112.773 101.581 112.91 101.617C113.047 101.652 113.164 101.74 113.238 101.861C113.311 101.982 113.334 102.127 113.302 102.265C113.27 102.403 113.186 102.523 113.067 102.599L104.031 108.324L112.917 103.184C112.978 103.147 113.046 103.123 113.116 103.112C113.186 103.101 113.258 103.105 113.327 103.122C113.396 103.139 113.461 103.169 113.519 103.212C113.576 103.254 113.624 103.307 113.661 103.368C113.698 103.429 113.722 103.497 113.733 103.567C113.744 103.638 113.74 103.71 113.723 103.779C113.706 103.848 113.676 103.913 113.634 103.971C113.591 104.028 113.538 104.077 113.477 104.114L106.188 108.713L113.183 104.667C113.305 104.599 113.449 104.58 113.585 104.616C113.721 104.652 113.837 104.739 113.91 104.859C113.983 104.979 114.006 105.123 113.976 105.26C113.945 105.397 113.862 105.517 113.745 105.594L105.007 111.164L113.359 106.333C113.482 106.262 113.628 106.242 113.766 106.277C113.903 106.313 114.021 106.401 114.094 106.523C114.167 106.645 114.19 106.791 114.157 106.93C114.124 107.068 114.038 107.188 113.917 107.263L112.544 108.12L113.391 107.63C113.514 107.559 113.66 107.539 113.797 107.575C113.935 107.611 114.053 107.699 114.126 107.821C114.199 107.943 114.221 108.089 114.188 108.227C114.155 108.365 114.069 108.485 113.949 108.561L111.285 110.233L113.325 109.053C113.447 108.985 113.591 108.967 113.727 109.002C113.863 109.038 113.979 109.125 114.052 109.245C114.125 109.366 114.148 109.509 114.118 109.646C114.087 109.784 114.004 109.903 113.887 109.981L109.192 112.97L113.128 110.69C113.251 110.615 113.399 110.593 113.538 110.627C113.678 110.662 113.798 110.75 113.872 110.874C113.947 110.997 113.969 111.145 113.935 111.284C113.9 111.424 113.812 111.545 113.689 111.619L111.788 112.827L112.802 112.241C112.924 112.172 113.069 112.152 113.205 112.187C113.341 112.222 113.458 112.309 113.531 112.428C113.605 112.548 113.629 112.692 113.599 112.829C113.569 112.967 113.487 113.087 113.37 113.165L106.871 117.448L112.113 114.416C112.234 114.346 112.377 114.326 112.512 114.359C112.648 114.393 112.765 114.477 112.84 114.595C112.915 114.713 112.941 114.855 112.914 114.992C112.887 115.13 112.808 115.251 112.694 115.331L105.187 120.566L110.675 117.398C110.797 117.329 110.941 117.309 111.077 117.344C111.212 117.378 111.329 117.464 111.403 117.584C111.477 117.703 111.502 117.846 111.473 117.984C111.444 118.121 111.362 118.241 111.246 118.32L110.085 119.097C110.19 119.099 110.292 119.131 110.379 119.19C110.467 119.249 110.535 119.332 110.576 119.43C110.616 119.527 110.628 119.634 110.609 119.737C110.59 119.841 110.542 119.937 110.469 120.014L108.991 121.569C107.692 122.03 106.527 123.543 105.47 123.892C105.476 123.762 105.529 123.638 105.619 123.543L107.097 121.987L97.1462 127.742C97.0243 127.814 96.8789 127.836 96.7411 127.802C96.6034 127.769 96.4843 127.682 96.4094 127.562C96.3345 127.441 96.3098 127.296 96.3406 127.157C96.3714 127.018 96.4552 126.897 96.574 126.82L96.7539 126.699L94.6333 127.929C94.5508 127.977 94.4573 128.001 94.3624 128Z" fill="#29B564"/>
<path id="Vector_7" d="M88.5341 118C88.419 118 88.3069 117.965 88.2128 117.9C88.1187 117.835 88.0472 117.743 88.008 117.637C87.9688 117.53 87.9638 117.415 87.9936 117.306C88.0235 117.197 88.0867 117.099 88.1749 117.027L92.3136 113.638L87.2802 116.492C87.1558 116.561 87.0091 116.582 86.8701 116.548C86.731 116.515 86.6101 116.431 86.5321 116.313C86.4541 116.195 86.4249 116.053 86.4505 115.914C86.476 115.776 86.5544 115.653 86.6696 115.569L92.6941 111.27L85.8928 115.128C85.7754 115.194 85.6379 115.216 85.5054 115.19C85.3729 115.164 85.2543 115.092 85.1715 114.987C85.0887 114.883 85.0471 114.752 85.0544 114.619C85.0618 114.487 85.1175 114.362 85.2114 114.266L85.7267 113.748L84.9409 114.189C84.8226 114.256 84.6834 114.278 84.5495 114.252C84.4156 114.225 84.2962 114.152 84.2136 114.045C84.1309 113.938 84.0908 113.805 84.1008 113.671C84.1107 113.538 84.1699 113.412 84.2674 113.318L84.6188 112.979L84.044 113.309C83.9337 113.372 83.8051 113.395 83.6793 113.376C83.5535 113.357 83.438 113.297 83.3517 113.205C83.2655 113.113 83.2136 112.995 83.2045 112.87C83.1955 112.746 83.2299 112.622 83.3021 112.519L84.694 110.546C84.5713 110.543 84.4527 110.502 84.3563 110.427C84.26 110.353 84.1912 110.249 84.1605 110.132C84.1298 110.016 84.1389 109.892 84.1864 109.781C84.2339 109.67 84.3172 109.577 84.4234 109.517L86.1914 108.515C86.3017 108.453 86.4304 108.429 86.5561 108.448C86.6819 108.467 86.7974 108.527 86.8837 108.619C86.97 108.711 87.0219 108.829 87.0309 108.954C87.0399 109.078 87.0055 109.202 86.9334 109.305L85.6492 111.114L87.8583 109.863C87.9765 109.797 88.1151 109.775 88.2484 109.802C88.3816 109.829 88.5004 109.902 88.5828 110.009C88.6651 110.115 88.7053 110.247 88.6959 110.38C88.6866 110.513 88.6283 110.639 88.5318 110.733L88.1805 111.072L88.7081 110.775C88.8254 110.709 88.963 110.687 89.0955 110.713C89.228 110.739 89.3465 110.811 89.4294 110.916C89.5122 111.021 89.5538 111.151 89.5464 111.284C89.5391 111.416 89.4833 111.542 89.3894 111.637L88.8742 112.154L101.364 105.072C101.489 105.003 101.635 104.982 101.775 105.016C101.914 105.049 102.034 105.133 102.112 105.251C102.19 105.369 102.22 105.511 102.194 105.65C102.169 105.788 102.09 105.911 101.975 105.995L95.9527 110.294L97.412 109.47C97.5335 109.402 97.6762 109.382 97.8123 109.412C97.9483 109.443 98.0679 109.522 98.1478 109.634C98.2277 109.746 98.2621 109.884 98.2444 110.02C98.2266 110.156 98.158 110.28 98.0518 110.369L93.4956 114.101C93.6159 114.108 93.7306 114.153 93.8227 114.23C93.9148 114.306 93.9795 114.41 94.0071 114.525C94.0346 114.64 94.0237 114.761 93.9758 114.87C93.928 114.978 93.8458 115.069 93.7414 115.128L88.8192 117.92C88.7335 117.972 88.6348 117.999 88.5341 118Z" fill="white"/>
<path id="Vector_8" d="M90.7321 112C90.6211 112 90.5129 111.963 90.4228 111.895C90.3327 111.827 90.2654 111.731 90.2303 111.62C90.1952 111.51 90.1941 111.391 90.2272 111.279C90.2603 111.168 90.3259 111.071 90.4147 111.001L97.2752 105.608L95.3118 106.801C95.1942 106.873 95.0549 106.894 94.9228 106.861C94.7907 106.827 94.6759 106.742 94.6021 106.622C94.5284 106.502 94.5014 106.357 94.5268 106.217C94.5522 106.077 94.6279 105.953 94.7384 105.87L97.0446 104.129C96.9717 104.087 96.9092 104.028 96.8623 103.956C96.8154 103.884 96.7853 103.801 96.7744 103.715C96.7636 103.628 96.7724 103.54 96.8 103.458C96.8277 103.375 96.8734 103.301 96.9335 103.241L100.37 99.7539L100.36 99.7384C100.29 99.6109 100.271 99.4594 100.307 99.3172C100.344 99.175 100.432 99.0538 100.554 98.9801L102.049 98.0743C102.16 98.0066 102.292 97.9841 102.418 98.0111C102.545 98.0381 102.657 98.1127 102.735 98.2208C102.813 98.3288 102.85 98.4629 102.84 98.5979C102.83 98.7328 102.774 98.8593 102.681 98.9535L100.757 100.905L103.567 99.2033C103.684 99.1318 103.823 99.1105 103.956 99.1438C104.088 99.1771 104.203 99.2625 104.276 99.3823C104.35 99.5021 104.377 99.647 104.352 99.7871C104.326 99.9272 104.25 100.052 104.14 100.135L103.914 100.305L104.41 100.005C104.527 99.9341 104.665 99.9128 104.796 99.9454C104.927 99.9779 105.041 100.062 105.116 100.18C105.19 100.298 105.218 100.441 105.195 100.58C105.172 100.72 105.099 100.845 104.992 100.93L98.1364 106.318L102.55 103.645C102.671 103.573 102.815 103.553 102.95 103.592C103.085 103.63 103.2 103.723 103.269 103.85C103.339 103.977 103.358 104.128 103.323 104.269C103.287 104.411 103.199 104.532 103.079 104.606L90.9934 111.925C90.9141 111.973 90.824 111.999 90.7321 112Z" fill="white"/>
<g id="Group">
<path id="Vector_9" d="M105.594 124.423C109.223 122.454 109.223 122.176 111.039 119.462C120.46 106.568 110.167 87.0893 94.0133 88.123C58.899 91.6187 74.6221 141.226 105.594 124.423ZM88.9867 89.366C105.974 84.3481 119.862 105.732 109.41 119.706C108.392 121.068 108.392 121.345 106.154 123.051C79.4623 136.824 61.2694 101.144 88.9867 89.366Z" fill="#262626"/>
<path id="Vector_10" d="M84.3449 114.472C88.5744 119.821 91.0768 119.175 94.8528 113.927C96.8874 110.046 110.554 100.885 103.543 98.0454C99.4433 96.6595 93.1693 108.288 89.6561 110.938C87.7294 107.898 85.1943 107.921 83.1357 110.841C81.8141 112.309 83.3505 113.468 84.3449 114.472ZM85.6043 110.074C87.2954 108.49 88.1274 113.609 90.1238 112.228C94.0328 107.954 97.8055 103.484 101.682 99.1739C102.126 98.0367 105.028 100.924 104.058 101.629C99.742 106.536 95.3849 111.434 91.0627 116.343C88.9364 119.069 86.4199 113.848 84.6404 112.645C83.683 111.578 84.8464 110.822 85.6043 110.074Z" fill="#262626"/>
</g>
</g>
</g>
</svg>
